<svg xmlns="http://www.w3.org/2000/svg" width="12" height="7" viewBox="0 0 12 7" fill="none">
  <path d="M5.85906 2.83902L2.5384 5.79292C2.45343 5.8685 2.35442 5.92659 2.24702 5.96387C2.13962 6.00116 2.02593 6.01691 1.91244 6.01022C1.79896 6.00353 1.6879 5.97454 1.58561 5.9249C1.48332 5.87527 1.39181 5.80595 1.31629 5.72092C1.24076 5.63588 1.18272 5.5368 1.14546 5.42931C1.10821 5.32183 1.09247 5.20806 1.09915 5.09449C1.10583 4.98092 1.1348 4.86978 1.1844 4.76741C1.23401 4.66505 1.30327 4.57346 1.38824 4.49788L5.85906 0.520723L10.3288 4.49788C10.5004 4.65052 10.6044 4.86512 10.6179 5.09449C10.6314 5.32385 10.5533 5.54918 10.4008 5.72092C10.2482 5.89265 10.0338 5.99672 9.8046 6.01022C9.57541 6.02372 9.35024 5.94556 9.17864 5.79292L5.85906 2.83902Z" fill="black"/>
</svg>