<svg xmlns="http://www.w3.org/2000/svg" width="25" height="26" viewBox="0 0 25 26" fill="none">
  <mask id="mask0_8893_28281" style="mask-type:luminance" maskUnits="userSpaceOnUse" x="0" y="1" width="25" height="24">
    <path d="M24.375 1.125H0.625V24.875H24.375V1.125Z" fill="white"/>
  </mask>
  <g mask="url(#mask0_8893_28281)">
    <path d="M21.5476 1.125H3.45237C1.89166 1.125 0.625 2.39166 0.625 3.95237V22.0476C0.625 23.6084 1.89166 24.875 3.45237 24.875H21.5476C23.1084 24.875 24.375 23.6084 24.375 22.0476V3.95237C24.375 2.39166 23.1084 1.125 21.5476 1.125ZM7.97619 10.1726V20.9166H4.58334V10.1726H7.97619ZM4.58334 7.04554C4.58334 6.25387 5.2619 5.64881 6.27976 5.64881C7.29762 5.64881 7.93661 6.25387 7.97619 7.04554C7.97619 7.8372 7.34286 8.47619 6.27976 8.47619C5.2619 8.47619 4.58334 7.8372 4.58334 7.04554ZM20.4166 20.9166H17.0238C17.0238 20.9166 17.0238 15.6804 17.0238 15.2619C17.0238 14.131 16.4584 13 15.0446 12.9774H14.9994C13.631 12.9774 13.0655 14.1423 13.0655 15.2619C13.0655 15.7765 13.0655 20.9166 13.0655 20.9166H9.67262V10.1726H13.0655V11.6202C13.0655 11.6202 14.1569 10.1726 16.3509 10.1726C18.5959 10.1726 20.4166 11.7164 20.4166 14.8435V20.9166Z" fill="white"/>
  </g>
</svg>