<svg xmlns="http://www.w3.org/2000/svg" width="34" height="34" viewBox="0 0 34 34" fill="none">
  <g clip-path="url(#clip0_8959_71619)">
    <path d="M16.1142 33.9256C16.4119 34.0137 16.6489 34.0258 16.9435 33.9499C16.9982 33.9408 17.1471 33.8952 17.1471 33.8952C20.0846 32.8809 32.7978 20.8604 33.8883 18.0603C33.8883 18.0603 33.94 17.8994 33.9491 17.8417C34.0068 17.5896 34.019 17.3649 33.9673 17.0976C33.9582 17.0338 33.8974 16.8303 33.8974 16.8303C32.813 13.848 20.9565 1.30522 18.104 0.139016C18.104 0.139016 17.943 0.0813149 17.8853 0.0691651C17.5936 -0.0158721 17.3597 -0.0219451 17.0711 0.0479058C17.0195 0.0570191 16.8646 0.105611 16.8646 0.105611C13.9301 1.12604 1.31715 13.0432 0.141526 15.9041C0.141526 15.9041 0.0838076 16.062 0.0716565 16.1136C-0.0134017 16.4112 -0.0255528 16.6451 0.0503919 16.9366C0.0595053 16.9883 0.10811 17.1401 0.10811 17.1401C1.12273 20.0708 13.043 32.6835 15.9077 33.8588C15.9077 33.8588 16.0656 33.9165 16.1142 33.9256Z" fill="black"/>
    <path d="M7.92843 22.99C8.03337 23.0211 8.1169 23.0254 8.22077 22.9986C8.24004 22.9954 8.29251 22.9793 8.29251 22.9793C9.32802 22.6218 13.8095 18.3845 14.1939 17.3974C14.1939 17.3974 14.2121 17.3407 14.2153 17.3203C14.2357 17.2315 14.24 17.1522 14.2218 17.058C14.2186 17.0356 14.1971 16.9638 14.1971 16.9638C13.8148 15.9125 9.63535 11.4911 8.62983 11.08C8.62983 11.08 8.57307 11.0597 8.55273 11.0554C8.44993 11.0254 8.36747 11.0233 8.26574 11.0479C8.24754 11.0511 8.19292 11.0682 8.19292 11.0682C7.15849 11.4279 2.71235 15.6288 2.29794 16.6373C2.29794 16.6373 2.27759 16.693 2.27331 16.7112C2.24332 16.8161 2.23904 16.8985 2.26581 17.0013C2.26902 17.0195 2.28616 17.073 2.28616 17.073C2.64382 18.1061 6.84581 22.5522 7.85561 22.9665C7.85561 22.9665 7.91129 22.9868 7.92843 22.99Z" fill="#FFE8AD"/>
    <path d="M16.4167 31.4773C16.5217 31.5084 16.6052 31.5127 16.709 31.4859C16.7283 31.4827 16.7808 31.4666 16.7808 31.4666C17.8163 31.1091 22.2978 26.8718 22.6822 25.8847C22.6822 25.8847 22.7004 25.828 22.7036 25.8076C22.724 25.7188 22.7283 25.6396 22.7101 25.5453C22.7068 25.5229 22.6854 25.4511 22.6854 25.4511C22.3031 24.3998 18.1236 19.9784 17.1181 19.5673C17.1181 19.5673 17.0614 19.547 17.041 19.5427C16.9382 19.5127 16.8558 19.5106 16.754 19.5352C16.7358 19.5384 16.6812 19.5555 16.6812 19.5555C15.6468 19.9153 11.2006 24.1161 10.7862 25.1246C10.7862 25.1246 10.7659 25.1803 10.7616 25.1985C10.7316 25.3034 10.7273 25.3858 10.7541 25.4886C10.7573 25.5068 10.7744 25.5603 10.7744 25.5603C11.1321 26.5934 15.3341 31.0395 16.3439 31.4538C16.3439 31.4538 16.3996 31.4741 16.4167 31.4773Z" fill="#BBAFFD"/>
    <path d="M25.1569 22.99C25.2619 23.0211 25.3454 23.0254 25.4493 22.9986C25.4686 22.9954 25.521 22.9793 25.521 22.9793C26.5565 22.6218 31.038 18.3845 31.4224 17.3974C31.4224 17.3974 31.4406 17.3407 31.4439 17.3203C31.4642 17.2315 31.4685 17.1522 31.4503 17.058C31.4471 17.0356 31.4257 16.9638 31.4257 16.9638C31.0434 15.9125 26.8639 11.4911 25.8583 11.08C25.8583 11.08 25.8016 11.0597 25.7812 11.0554C25.6784 11.0254 25.596 11.0233 25.4943 11.0479C25.4761 11.0511 25.4214 11.0682 25.4214 11.0682C24.387 11.4279 19.9409 15.6288 19.5265 16.6373C19.5265 16.6373 19.5061 16.693 19.5018 16.7112C19.4718 16.8161 19.4676 16.8985 19.4943 17.0013C19.4975 17.0195 19.5147 17.073 19.5147 17.073C19.8723 18.1061 24.0743 22.5522 25.0841 22.9665C25.0841 22.9665 25.1398 22.9868 25.1569 22.99Z" fill="#BDEFD1"/>
    <path d="M16.6667 14.5027C16.7717 14.5338 16.8552 14.5381 16.959 14.5113C16.9783 14.5081 17.0308 14.492 17.0308 14.492C18.0663 14.1345 22.5478 9.89715 22.9322 8.91009C22.9322 8.91009 22.9504 8.85336 22.9536 8.83301C22.974 8.74416 22.9783 8.66494 22.9601 8.57073C22.9568 8.54824 22.9354 8.47652 22.9354 8.47652C22.5531 7.42522 18.3736 3.0038 17.3681 2.5927C17.3681 2.5927 17.3114 2.57236 17.291 2.56808C17.1882 2.5381 17.1058 2.53596 17.004 2.56059C16.9858 2.5638 16.9312 2.58093 16.9312 2.58093C15.8968 2.94064 11.4506 7.14153 11.0362 8.15C11.0362 8.15 11.0159 8.20566 11.0116 8.22386C10.9816 8.32878 10.9773 8.41121 11.0041 8.51399C11.0073 8.53219 11.0244 8.58571 11.0244 8.58571C11.3821 9.61881 15.5841 14.0649 16.5939 14.4792C16.5939 14.4792 16.6496 14.4995 16.6667 14.5027Z" fill="#F2B2D7"/>
  </g>
  <defs>
    <clipPath id="clip0_8959_71619">
      <rect width="34" height="34" fill="white"/>
    </clipPath>
  </defs>
</svg>