<svg width="24" height="25" viewBox="0 0 24 25" fill="none" xmlns="http://www.w3.org/2000/svg">
<g id="pie-chart-01">
<path id="Icon" d="M21.2104 16.2904C20.5742 17.7949 19.5792 19.1206 18.3123 20.1517C17.0454 21.1828 15.5452 21.8878 13.9428 22.2052C12.3405 22.5225 10.6848 22.4425 9.12055 21.9722C7.55627 21.5018 6.13103 20.6555 4.96942 19.507C3.80782 18.3586 2.94522 16.9431 2.45704 15.3843C1.96886 13.8255 1.86996 12.1709 2.169 10.565C2.46804 8.95916 3.1559 7.45101 4.17245 6.17241C5.189 4.89382 6.50329 3.8837 8.0004 3.23038M21.2392 8.57355C21.6395 9.54001 21.8851 10.5617 21.9684 11.6012C21.989 11.858 21.9993 11.9864 21.9483 12.1021C21.9057 12.1987 21.8213 12.2901 21.7284 12.3403C21.6172 12.4004 21.4783 12.4004 21.2004 12.4004H12.8004C12.5204 12.4004 12.3804 12.4004 12.2734 12.3459C12.1793 12.298 12.1028 12.2215 12.0549 12.1274C12.0004 12.0204 12.0004 11.8804 12.0004 11.6004V3.20038C12.0004 2.92252 12.0004 2.78358 12.0605 2.67237C12.1107 2.57946 12.2021 2.49507 12.2987 2.45248C12.4144 2.40148 12.5428 2.41178 12.7996 2.43237C13.839 2.5157 14.8608 2.76127 15.8272 3.16159C17.0405 3.66414 18.1429 4.40073 19.0715 5.32932C20.0001 6.2579 20.7367 7.36029 21.2392 8.57355Z" stroke="#131110" stroke-width="2" stroke-linecap="round" stroke-linejoin="round"/>
</g>
</svg>
