<svg xmlns="http://www.w3.org/2000/svg" width="30" height="30" viewBox="0 0 30 30" fill="none">
  <path fill-rule="evenodd" clip-rule="evenodd" d="M24.5136 6.9623C25.5681 7.24455 26.3968 8.07318 26.679 9.12761C27.189 11.0369 27.1911 15.0227 27.1911 15.0227C27.1911 15.0227 27.1911 19.0086 26.679 20.918C26.3968 21.9723 25.5681 22.8009 24.5136 23.0832C22.6044 23.5953 14.9451 23.5953 14.9451 23.5953C14.9451 23.5953 7.2859 23.5953 5.37663 23.0832C4.3222 22.8009 3.49357 21.9723 3.21132 20.918C2.69922 19.0086 2.69922 15.0227 2.69922 15.0227C2.69922 15.0227 2.69922 11.0369 3.21132 9.12761C3.49357 8.07318 4.3222 7.24455 5.37663 6.9623C7.2859 6.4502 14.9451 6.4502 14.9451 6.4502C14.9451 6.4502 22.6044 6.4502 24.5136 6.9623ZM18.8565 15.023L12.4936 18.6963V11.3497L18.8565 15.023Z" fill="white"/>
</svg>