<?xml version="1.0" encoding="utf-8"?>
<!-- Generator: Adobe Illustrator 15.0.0, SVG Export Plug-In . SVG Version: 6.00 Build 0)  -->
<!DOCTYPE svg PUBLIC "-//W3C//DTD SVG 1.1//EN" "http://www.w3.org/Graphics/SVG/1.1/DTD/svg11.dtd">
<svg version="1.1" id="Layer_1" xmlns="http://www.w3.org/2000/svg" xmlns:xlink="http://www.w3.org/1999/xlink" x="0px" y="0px"
	 width="595.279px" height="595.281px" viewBox="0 0 595.279 595.281" enable-background="new 0 0 595.279 595.281"
	 xml:space="preserve">
<title>AMPATH LOGO</title>
<g>
	<rect x="36.141" y="0" fill="#0055B8" width="522.998" height="522.832"/>
	<path fill="#FFFFFF" d="M154.996,240.717L154.996,240.717l82.632-164.596l82.13,164.596l0,0H154.996z M341.793,252.902
		L238.296,45.739L134.464,252.902l0,0H341.793L341.793,252.902L341.793,252.902z"/>
	<path fill="#FFFFFF" d="M503.217,370.089h-62.6l0,0l-41.566-83.299h62.6h0.167l0,0L503.217,370.089L503.217,370.089z
		 M470.999,273.101L470.999,273.101h-94.817l54.086,108.339l0,0h94.817l0,0L470.999,273.101z"/>
	<path fill="#FFFFFF" d="M384.195,370.089H90.06l0,0l41.733-83.299l0,0h210.835v-0.167l0.334,0.167h-0.167L384.195,370.089
		L384.195,370.089L384.195,370.089z M351.977,273.101L351.977,273.101H124.281l0,0L69.862,381.44l0,0h336.201l0,0L351.977,273.101z"
		/>
	<path fill="#FFFFFF" d="M438.615,240.717L347.302,57.759l0,0h-62.6l0,0l91.312,182.791l0,0l0,0L438.615,240.717L438.615,240.717z
		 M460.816,252.902h-94.817l0,0L262.501,45.739l0,0v-0.166l0,0h94.65l0,0L460.816,252.902L460.816,252.902z"/>
	<path fill="#FFFFFF" d="M102.079,418.166l-8.848,22.702h17.528L102.079,418.166z M95.569,400.637h12.687l25.374,65.938h-13.021
		l-5.175-13.521H88.558l-5.342,13.521H70.195L95.569,400.637z"/>
	<polygon fill="#FFFFFF" points="168.685,400.637 181.038,400.637 196.229,446.711 211.753,400.637 223.773,400.637 
		234.957,466.576 222.771,466.576 215.76,425.01 201.738,466.576 190.72,466.576 176.865,425.01 169.687,466.576 157.333,466.576 	
		"/>
	<g>
		<g>
			<defs>
				<rect id="SVGID_1_" x="-21.284" y="-57.091" width="637.848" height="708.628"/>
			</defs>
			<clipPath id="SVGID_2_">
				<use xlink:href="#SVGID_1_"  overflow="visible"/>
			</clipPath>
			<path clip-path="url(#SVGID_2_)" fill="#FFFFFF" d="M276.524,426.512h4.006c3.172,0,5.342-0.167,6.511-0.668
				c1.168-0.501,2.17-1.169,2.838-2.17c0.667-1.002,1.001-2.337,1.001-3.84c0-2.504-1.001-4.34-3.005-5.509
				c-1.502-0.835-4.173-1.335-8.013-1.335h-3.338V426.512z M264.003,400.637h13.354c7.179,0,12.354,0.668,15.525,2.003
				c3.171,1.336,5.675,3.506,7.512,6.511c1.836,3.005,2.838,6.511,2.838,10.684c0,4.674-1.169,8.347-3.673,11.519
				c-2.337,3.005-5.676,5.175-9.849,6.343c-2.337,0.668-6.845,1.002-13.188,1.002v27.878h-12.521V400.637L264.003,400.637z"/>
		</g>
	</g>
	<path fill="#FFFFFF" d="M360.99,418.166l-8.848,22.702h17.528L360.99,418.166z M354.481,400.637h12.687l25.374,65.938H379.52
		l-5.175-13.521h-26.876l-5.342,13.521h-13.021L354.481,400.637z"/>
	<polygon fill="#FFFFFF" points="414.909,400.637 451.301,400.637 451.301,413.158 439.281,413.158 439.281,466.576 
		426.595,466.576 426.595,413.158 414.909,413.158 	"/>
	<polygon fill="#FFFFFF" points="478.845,400.637 491.531,400.637 491.531,425.51 513.567,425.51 513.567,400.637 526.253,400.637 
		526.253,466.576 513.567,466.576 513.567,437.697 491.531,437.697 491.531,466.576 478.845,466.576 	"/>
	<g>
		<g>
			<defs>
				<rect id="SVGID_3_" x="-21.284" y="-57.091" width="637.848" height="708.628"/>
			</defs>
			<clipPath id="SVGID_4_">
				<use xlink:href="#SVGID_3_"  overflow="visible"/>
			</clipPath>
			<path clip-path="url(#SVGID_4_)" fill="#0055B8" d="M36.141,546.203h9.015v38.728h13.021v8.514H36.141V546.203z M85.386,546.203
				h9.181l18.196,47.241h-9.349l-3.672-9.682H80.378l-3.84,9.682h-9.348L85.386,546.203z M90.06,558.722l-6.344,16.192h12.521
				L90.06,558.722z M125.783,593.444v-47.241h7.345c4.341,0,7.513,0.334,9.516,0.834c2.838,0.668,5.008,2.17,6.677,4.174
				c1.67,2.003,2.504,4.507,2.504,7.178c0,1.836-0.333,3.339-1.168,4.841c-0.835,1.503-2.003,2.838-3.673,4.174
				c2.838,1.335,5.008,3.005,6.344,5.008c1.335,2.003,2.003,4.34,2.003,7.178c0,2.671-0.668,5.008-2.003,7.179
				c-1.336,2.17-3.172,3.839-5.342,4.841c-2.17,1.001-5.175,1.669-9.015,1.669h-13.188V593.444z M134.798,554.716v10.017h2.003
				c2.17,0,3.84-0.501,4.841-1.336c1.002-0.834,1.503-2.17,1.503-3.839c0-1.503-0.501-2.671-1.503-3.506
				c-1.001-0.835-2.504-1.336-4.507-1.336H134.798L134.798,554.716z M134.798,572.745v12.186h2.17c3.673,0,6.177-0.501,7.512-1.335
				c1.336-1.002,2.003-2.337,2.003-4.174c0-2.003-0.834-3.672-2.337-4.841c-1.502-1.168-4.006-1.836-7.512-1.836H134.798z
				 M192.223,544.867c6.677,0,12.353,2.504,17.193,7.178c4.841,4.842,7.179,10.851,7.179,17.695c0,6.844-2.338,12.687-7.012,17.527
				c-4.674,4.842-10.517,7.179-17.194,7.179c-7.011,0-13.021-2.504-17.694-7.345c-4.674-4.842-7.011-10.685-7.011-17.528
				c0-4.507,1.168-8.681,3.338-12.52c2.171-3.84,5.175-6.845,9.015-9.015C183.709,546.036,187.715,544.867,192.223,544.867
				 M192.056,553.715c-4.341,0-8.013,1.502-11.018,4.507s-4.508,6.845-4.508,11.686c0,5.175,1.837,9.348,5.676,12.353
				c2.838,2.337,6.177,3.506,10.017,3.506c4.34,0,7.846-1.502,10.851-4.674c3.004-3.005,4.507-6.845,4.507-11.352
				s-1.503-8.347-4.507-11.352C200.069,555.384,196.396,553.715,192.056,553.715 M231.785,546.203h9.515
				c5.176,0,9.015,0.5,11.185,1.335c2.171,1.002,4.007,2.504,5.342,4.674c1.336,2.171,2.004,4.675,2.004,7.679
				c0,3.172-0.668,5.676-2.171,7.847c-1.502,2.17-3.672,3.672-6.677,4.674l11.185,21.033h-9.85l-10.684-20.031H240.8v20.031h-9.015
				V546.203L231.785,546.203z M240.633,564.565h2.838c2.838,0,4.841-0.334,5.843-1.169c1.001-0.668,1.669-2.003,1.669-3.672
				c0-1.002-0.334-1.837-0.835-2.671c-0.501-0.835-1.168-1.336-2.17-1.67c-0.835-0.334-2.504-0.501-5.008-0.501h-2.504v9.683
				H240.633z M289.544,546.203h9.181l18.195,47.241h-9.348l-3.673-9.682h-19.197l-3.839,9.682h-9.349L289.544,546.203z
				 M294.218,558.722l-6.344,16.192h12.521L294.218,558.722z M325.267,546.203h26.042v8.847h-8.681v38.395h-9.182V555.05H325.1
				v-8.847H325.267z M385.864,544.867c6.678,0,12.354,2.504,17.194,7.178c4.841,4.842,7.178,10.851,7.178,17.695
				c0,6.844-2.337,12.687-7.011,17.527c-4.675,4.842-10.517,7.179-17.194,7.179c-7.011,0-13.021-2.504-17.694-7.345
				c-4.675-4.842-7.012-10.685-7.012-17.528c0-4.507,1.169-8.681,3.339-12.52c2.17-3.84,5.175-6.845,9.015-9.015
				C377.35,546.036,381.357,544.867,385.864,544.867 M385.697,553.715c-4.34,0-8.013,1.502-11.018,4.507s-4.507,6.845-4.507,11.686
				c0,5.175,1.836,9.348,5.676,12.353c2.838,2.337,6.176,3.506,10.016,3.506c4.34,0,7.846-1.502,10.851-4.674
				c3.005-3.005,4.507-6.845,4.507-11.352s-1.502-8.347-4.507-11.352S390.037,553.715,385.697,553.715 M425.26,546.203h9.515
				c5.175,0,9.015,0.5,11.185,1.335c2.17,1.002,4.006,2.504,5.342,4.674c1.336,2.171,2.003,4.675,2.003,7.679
				c0,3.172-0.667,5.676-2.17,7.847c-1.502,2.17-3.673,3.672-6.677,4.674l11.184,21.033h-9.849l-10.684-20.031h-0.835v20.031h-9.014
				V546.203z M434.274,564.565h2.838c2.838,0,4.841-0.334,5.843-1.169c1.002-0.668,1.669-2.003,1.669-3.672
				c0-1.002-0.333-1.837-0.834-2.671c-0.501-0.835-1.169-1.336-2.17-1.67c-0.835-0.334-2.505-0.501-5.009-0.501h-2.504v9.683
				H434.274z M468.161,546.203h8.847v47.241h-8.847V546.203z M493.367,546.203h25.708v8.847h-16.86v8.514h16.86v8.681h-16.86v12.353
				h16.86v8.848h-25.708V546.203z M558.138,552.546l-6.678,5.843c-2.337-3.339-4.674-4.841-7.178-4.841
				c-1.169,0-2.17,0.334-2.838,1.001c-0.835,0.668-1.169,1.336-1.169,2.171c0,0.834,0.334,1.502,0.835,2.337
				c0.668,1.001,3.005,3.005,6.511,6.01c3.505,2.838,5.508,4.674,6.176,5.509c1.837,1.836,3.172,3.672,3.84,5.342
				c0.834,1.669,1.168,3.505,1.168,5.509c0,3.839-1.335,7.011-4.006,9.682c-2.671,2.504-6.177,3.84-10.517,3.84
				c-3.339,0-6.344-0.835-8.681-2.504c-2.504-1.67-4.674-4.174-6.344-7.847l7.513-4.507c2.337,4.173,4.841,6.344,7.846,6.344
				c1.502,0,2.838-0.501,3.839-1.336c1.002-0.835,1.503-2.003,1.503-3.172c0-1.001-0.334-2.17-1.169-3.172
				c-0.835-1.001-2.504-2.671-5.175-5.008c-5.175-4.173-8.514-7.345-10.016-9.682c-1.503-2.337-2.171-4.507-2.171-6.845
				c0-3.338,1.169-6.009,3.673-8.513c2.504-2.338,5.509-3.506,9.182-3.506c2.337,0,4.674,0.501,6.677,1.669
				C553.463,547.705,555.801,549.708,558.138,552.546"/>
		</g>
	</g>
</g>
</svg>
