<svg width="601" height="543" viewBox="0 0 601 543" fill="none" xmlns="http://www.w3.org/2000/svg">
<rect x="0.660156" y="0.900391" width="599.84" height="541.41" rx="19.5" fill="#F6F8FD"/>
<rect x="0.660156" y="0.900391" width="599.84" height="541.41" rx="19.5" stroke="#D6DEFA"/>
<g clip-path="url(#clip0_8893_16735)">
<g clip-path="url(#clip1_8893_16735)">
<g clip-path="url(#clip2_8893_16735)">
<path d="M245.662 81.4004V460.024" stroke="#D6DEFA" stroke-width="0.892981"/>
<path d="M137.611 81.4004V460.024" stroke="#D6DEFA" stroke-width="0.892981"/>
<path d="M353.713 83.1863V461.81" stroke="#D6DEFA" stroke-width="0.892981"/>
<path d="M461.764 83.1863V461.81" stroke="#D6DEFA" stroke-width="0.892981"/>
<path d="M551.063 111.315H50.1005C45.4153 111.315 41.6172 115.113 41.6172 119.799V173.377C41.6172 178.063 45.4153 181.861 50.1005 181.861H551.063C555.748 181.861 559.546 178.063 559.546 173.377V119.799C559.546 115.113 555.748 111.315 551.063 111.315Z" fill="white"/>
<path d="M551.063 111.315H50.1005C45.4153 111.315 41.6172 115.113 41.6172 119.799V173.377C41.6172 178.063 45.4153 181.861 50.1005 181.861H551.063C555.748 181.861 559.546 178.063 559.546 173.377V119.799C559.546 115.113 555.748 111.315 551.063 111.315Z" stroke="#E8E8E8" stroke-width="0.892981"/>
<path d="M145.649 114.441H50.1004C49.1141 114.441 48.3145 115.24 48.3145 116.227C48.3145 117.213 49.1141 118.013 50.1004 118.013H145.649C146.636 118.013 147.435 117.213 147.435 116.227C147.435 115.24 146.636 114.441 145.649 114.441Z" fill="#D7D5D5"/>
<path d="M248.341 114.441H151.899C150.913 114.441 150.113 115.24 150.113 116.227C150.113 117.213 150.913 118.013 151.899 118.013H248.341C249.328 118.013 250.127 117.213 250.127 116.227C250.127 115.24 249.328 114.441 248.341 114.441Z" fill="#D7D5D5"/>
<path d="M349.249 114.441H253.7C252.714 114.441 251.914 115.24 251.914 116.227C251.914 117.213 252.714 118.013 253.7 118.013H349.249C350.235 118.013 351.035 117.213 351.035 116.227C351.035 115.24 350.235 114.441 349.249 114.441Z" fill="#FF563D"/>
<path d="M451.941 114.441H355.499C354.512 114.441 353.713 115.24 353.713 116.227C353.713 117.213 354.512 118.013 355.499 118.013H451.941C452.927 118.013 453.727 117.213 453.727 116.227C453.727 115.24 452.927 114.441 451.941 114.441Z" fill="#D7D5D5"/>
<path d="M552.849 114.441H457.3C456.313 114.441 455.514 115.24 455.514 116.227C455.514 117.213 456.313 118.013 457.3 118.013H552.849C553.835 118.013 554.635 117.213 554.635 116.227C554.635 115.24 553.835 114.441 552.849 114.441Z" fill="#D7D5D5"/>
<path d="M60.8023 137.819C59.4539 137.819 58.3243 137.381 57.4134 136.506C56.5115 135.622 56.0605 134.488 56.0605 133.104C56.0605 131.72 56.5115 130.59 57.4134 129.715C58.3243 128.831 59.4583 128.389 60.8157 128.389C61.9855 128.389 62.9767 128.719 63.7893 129.38C64.6019 130.041 65.0484 130.916 65.1288 132.006H63.5482C63.4232 131.318 63.0972 130.773 62.5704 130.371C62.0525 129.97 61.4675 129.769 60.8157 129.769C59.9406 129.769 59.2128 130.072 58.6323 130.68C58.0519 131.278 57.7617 132.086 57.7617 133.104C57.7617 134.122 58.0474 134.935 58.6189 135.542C59.1994 136.14 59.9272 136.439 60.8023 136.439C61.5345 136.439 62.1417 136.247 62.624 135.863C63.1151 135.47 63.4232 134.917 63.5482 134.202H65.1288C65.0395 135.265 64.593 136.136 63.7893 136.814C62.9945 137.484 61.9989 137.819 60.8023 137.819ZM66.7978 137.658V127.612H68.3783V137.658H66.7978ZM72.3073 137.819C71.6197 137.819 71.066 137.636 70.6463 137.27C70.2266 136.904 70.0168 136.426 70.0168 135.837C70.0168 134.542 71.0392 133.76 73.0842 133.492L74.437 133.318V133.251C74.437 132.787 74.3299 132.452 74.1156 132.247C73.9102 132.041 73.5619 131.939 73.0708 131.939C72.66 131.939 72.3341 132.032 72.093 132.22C71.8518 132.407 71.7313 132.662 71.7313 132.983H70.2311C70.2311 132.341 70.4722 131.818 70.9544 131.416C71.4455 131.006 72.1599 130.8 73.0976 130.8C75.0085 130.8 75.964 131.715 75.964 133.546V135.917C75.964 136.158 76.0042 136.319 76.0846 136.399C76.1649 136.479 76.3078 136.511 76.5132 136.493V137.658C76.2989 137.721 76.0667 137.752 75.8167 137.752C75.0934 137.752 74.6692 137.395 74.5442 136.68C74.0798 137.439 73.3342 137.819 72.3073 137.819ZM71.5973 135.689C71.5973 135.966 71.6911 136.189 71.8786 136.359C72.0751 136.529 72.343 136.613 72.6823 136.613C73.1913 136.613 73.611 136.421 73.9414 136.037C74.2718 135.653 74.437 135.22 74.437 134.738V134.377L73.3253 134.524C72.7359 134.595 72.2983 134.725 72.0126 134.912C71.7358 135.1 71.5973 135.359 71.5973 135.689ZM78.0354 137.658V130.961H79.6294V137.658H78.0354ZM78.0756 129.434C77.8791 129.246 77.7809 129.01 77.7809 128.724C77.7809 128.438 77.8791 128.206 78.0756 128.027C78.272 127.84 78.5221 127.746 78.8257 127.746C79.1382 127.746 79.3927 127.84 79.5892 128.027C79.7856 128.206 79.8839 128.438 79.8839 128.724C79.8839 129.01 79.7812 129.246 79.5758 129.434C79.3793 129.621 79.1293 129.715 78.8257 129.715C78.5221 129.715 78.272 129.621 78.0756 129.434ZM81.7472 137.658V130.961H83.2207L83.2742 132.032C83.7832 131.211 84.5958 130.8 85.7121 130.8C86.864 130.8 87.6141 131.269 87.9624 132.207C88.525 131.269 89.3956 130.8 90.5744 130.8C91.378 130.8 91.9897 131.041 92.4094 131.523C92.8381 131.997 93.0524 132.707 93.0524 133.653V137.658H91.4718V134.042C91.4718 133.336 91.3557 132.836 91.1235 132.541C90.9003 132.238 90.5476 132.086 90.0654 132.086C89.5296 132.086 89.0831 132.278 88.7259 132.662C88.3687 133.046 88.1901 133.586 88.1901 134.283V137.658H86.6095V134.042C86.6095 133.336 86.4934 132.836 86.2613 132.541C86.038 132.238 85.6853 132.086 85.2031 132.086C84.6584 132.086 84.2074 132.278 83.8502 132.662C83.5019 133.046 83.3278 133.586 83.3278 134.283V137.658H81.7472ZM97.477 137.819C96.5751 137.819 95.8518 137.614 95.3071 137.203C94.7624 136.783 94.49 136.171 94.49 135.368H95.9902C96.0527 136.234 96.5572 136.667 97.5038 136.667C97.9235 136.667 98.2405 136.596 98.4548 136.453C98.6691 136.301 98.7763 136.1 98.7763 135.85C98.7763 135.618 98.7049 135.444 98.562 135.328C98.4191 135.211 98.1334 135.091 97.7047 134.966L96.5796 134.658C95.9456 134.479 95.4678 134.243 95.1463 133.948C94.8338 133.653 94.6775 133.256 94.6775 132.756C94.6775 132.166 94.9276 131.693 95.4276 131.336C95.9277 130.97 96.6019 130.787 97.4502 130.787C98.3253 130.787 98.9951 130.983 99.4594 131.376C99.9238 131.769 100.165 132.318 100.183 133.024H98.7629C98.7004 132.282 98.2584 131.912 97.4368 131.912C97.0261 131.912 96.7269 131.979 96.5394 132.113C96.3519 132.247 96.2581 132.407 96.2581 132.595C96.2581 132.774 96.3385 132.921 96.4992 133.037C96.6599 133.153 96.9502 133.269 97.3699 133.385L98.4548 133.707C99.1424 133.912 99.6246 134.167 99.9015 134.47C100.187 134.774 100.33 135.185 100.33 135.703C100.33 136.319 100.071 136.828 99.5532 137.23C99.0442 137.623 98.3521 137.819 97.477 137.819ZM104.599 137.658V127.612H106.18V131.952C106.689 131.184 107.484 130.8 108.564 130.8C109.368 130.8 109.98 131.041 110.399 131.523C110.828 131.997 111.042 132.707 111.042 133.653V137.658H109.462V134.042C109.462 133.345 109.346 132.845 109.113 132.541C108.89 132.238 108.537 132.086 108.055 132.086C107.51 132.086 107.06 132.278 106.702 132.662C106.354 133.046 106.18 133.586 106.18 134.283V137.658H104.599ZM114.794 137.819C114.106 137.819 113.552 137.636 113.133 137.27C112.713 136.904 112.503 136.426 112.503 135.837C112.503 134.542 113.526 133.76 115.571 133.492L116.923 133.318V133.251C116.923 132.787 116.816 132.452 116.602 132.247C116.397 132.041 116.048 131.939 115.557 131.939C115.146 131.939 114.82 132.032 114.579 132.22C114.338 132.407 114.218 132.662 114.218 132.983H112.718C112.718 132.341 112.959 131.818 113.441 131.416C113.932 131.006 114.646 130.8 115.584 130.8C117.495 130.8 118.45 131.715 118.45 133.546V135.917C118.45 136.158 118.491 136.319 118.571 136.399C118.651 136.479 118.794 136.511 119 136.493V137.658C118.785 137.721 118.553 137.752 118.303 137.752C117.58 137.752 117.156 137.395 117.031 136.68C116.566 137.439 115.821 137.819 114.794 137.819ZM114.084 135.689C114.084 135.966 114.178 136.189 114.365 136.359C114.562 136.529 114.829 136.613 115.169 136.613C115.678 136.613 116.097 136.421 116.428 136.037C116.758 135.653 116.923 135.22 116.923 134.738V134.377L115.812 134.524C115.222 134.595 114.785 134.725 114.499 134.912C114.222 135.1 114.084 135.359 114.084 135.689ZM120.388 137.658V130.961H121.861L121.915 132.032C122.424 131.211 123.236 130.8 124.353 130.8C125.156 130.8 125.768 131.041 126.188 131.523C126.616 131.997 126.831 132.707 126.831 133.653V137.658H125.25V134.042C125.25 133.336 125.134 132.836 124.902 132.541C124.679 132.238 124.326 132.086 123.844 132.086C123.299 132.086 122.848 132.278 122.491 132.662C122.143 133.046 121.968 133.586 121.968 134.283V137.658H120.388ZM131.627 137.819C130.663 137.819 129.859 137.484 129.216 136.814C128.582 136.145 128.265 135.305 128.265 134.296C128.265 133.305 128.582 132.474 129.216 131.805C129.859 131.135 130.663 130.8 131.627 130.8C132.618 130.8 133.373 131.117 133.891 131.751V127.612H135.472V137.658H134.159L134.065 136.654C133.538 137.431 132.726 137.819 131.627 137.819ZM130.475 132.662C130.082 133.064 129.886 133.613 129.886 134.31C129.886 135.006 130.082 135.555 130.475 135.957C130.868 136.35 131.346 136.546 131.909 136.546C132.471 136.546 132.944 136.35 133.328 135.957C133.721 135.555 133.918 135.006 133.918 134.31C133.918 133.613 133.721 133.064 133.328 132.662C132.944 132.26 132.471 132.059 131.909 132.059C131.346 132.059 130.868 132.26 130.475 132.662ZM137.408 137.658V127.612H138.988V137.658H137.408ZM141.189 137.658V130.961H142.783V137.658H141.189ZM141.23 129.434C141.033 129.246 140.935 129.01 140.935 128.724C140.935 128.438 141.033 128.206 141.23 128.027C141.426 127.84 141.676 127.746 141.98 127.746C142.292 127.746 142.547 127.84 142.743 128.027C142.94 128.206 143.038 128.438 143.038 128.724C143.038 129.01 142.935 129.246 142.73 129.434C142.533 129.621 142.283 129.715 141.98 129.715C141.676 129.715 141.426 129.621 141.23 129.434ZM144.901 137.658V130.961H146.375L146.428 132.032C146.937 131.211 147.75 130.8 148.866 130.8C149.67 130.8 150.282 131.041 150.701 131.523C151.13 131.997 151.344 132.707 151.344 133.653V137.658H149.764V134.042C149.764 133.336 149.648 132.836 149.415 132.541C149.192 132.238 148.84 132.086 148.357 132.086C147.813 132.086 147.362 132.278 147.004 132.662C146.656 133.046 146.482 133.586 146.482 134.283V137.658H144.901ZM155.806 140.337C154.797 140.337 154.02 140.159 153.475 139.801C152.939 139.453 152.622 138.984 152.524 138.395H154.145C154.252 138.69 154.439 138.895 154.707 139.011C154.984 139.136 155.377 139.199 155.886 139.199C156.466 139.199 156.913 139.118 157.225 138.958C157.538 138.806 157.694 138.596 157.694 138.328C157.694 137.694 157.074 137.377 155.832 137.377C154.922 137.377 153.939 137.48 152.886 137.685L152.524 137.055L153.944 134.979C153.256 134.524 152.912 133.908 152.912 133.131C152.912 132.479 153.18 131.93 153.716 131.483C154.252 131.028 154.971 130.8 155.873 130.8C156.516 130.8 157.083 130.93 157.574 131.189C157.967 130.724 158.435 130.492 158.98 130.492C159.23 130.492 159.449 130.519 159.637 130.572V131.711C159.449 131.64 159.239 131.604 159.007 131.604C158.775 131.604 158.556 131.675 158.351 131.818C158.663 132.202 158.819 132.64 158.819 133.131C158.819 133.792 158.552 134.35 158.016 134.805C157.489 135.261 156.775 135.488 155.873 135.488C155.587 135.488 155.279 135.457 154.948 135.395L154.292 136.346C154.783 136.238 155.359 136.185 156.02 136.185C157.127 136.185 157.949 136.363 158.485 136.721C159.02 137.078 159.288 137.578 159.288 138.221C159.288 138.864 158.994 139.377 158.404 139.761C157.824 140.145 156.958 140.337 155.806 140.337ZM154.493 133.131C154.493 133.497 154.618 133.787 154.868 134.001C155.118 134.216 155.453 134.323 155.873 134.323C156.292 134.323 156.627 134.216 156.877 134.001C157.127 133.787 157.252 133.497 157.252 133.131C157.252 132.774 157.127 132.492 156.877 132.287C156.627 132.073 156.292 131.965 155.873 131.965C155.453 131.965 155.118 132.073 154.868 132.287C154.618 132.492 154.493 132.774 154.493 133.131ZM162.956 140.337C162.688 140.337 162.411 140.315 162.125 140.27V138.971C162.313 139.007 162.487 139.024 162.648 139.024C163.291 139.024 163.612 138.596 163.612 137.739V130.961H165.179V137.591C165.179 138.484 164.987 139.163 164.603 139.627C164.219 140.101 163.67 140.337 162.956 140.337ZM163.639 129.434C163.442 129.246 163.344 129.01 163.344 128.724C163.344 128.438 163.442 128.206 163.639 128.027C163.835 127.84 164.085 127.746 164.389 127.746C164.702 127.746 164.956 127.84 165.152 128.027C165.349 128.206 165.447 128.438 165.447 128.724C165.447 129.01 165.344 129.246 165.139 129.434C164.943 129.621 164.693 129.715 164.389 129.715C164.085 129.715 163.835 129.621 163.639 129.434ZM172.952 136.814C172.291 137.484 171.411 137.819 170.313 137.819C169.215 137.819 168.331 137.484 167.661 136.814C167 136.136 166.67 135.301 166.67 134.31C166.67 133.309 167 132.474 167.661 131.805C168.322 131.135 169.206 130.8 170.313 130.8C171.42 130.8 172.304 131.135 172.965 131.805C173.626 132.474 173.956 133.309 173.956 134.31C173.956 135.301 173.622 136.136 172.952 136.814ZM168.88 132.662C168.487 133.064 168.29 133.613 168.29 134.31C168.29 135.006 168.487 135.555 168.88 135.957C169.273 136.35 169.75 136.546 170.313 136.546C170.876 136.546 171.353 136.35 171.746 135.957C172.139 135.555 172.336 135.006 172.336 134.31C172.336 133.613 172.139 133.064 171.746 132.662C171.353 132.26 170.876 132.059 170.313 132.059C169.75 132.059 169.273 132.26 168.88 132.662ZM177.815 137.819C177.038 137.819 176.44 137.578 176.02 137.096C175.609 136.613 175.404 135.904 175.404 134.966V130.961H176.971V134.577C176.971 135.274 177.083 135.774 177.306 136.078C177.529 136.381 177.869 136.533 178.324 136.533C178.824 136.533 179.248 136.341 179.596 135.957C179.954 135.564 180.132 135.024 180.132 134.336V130.961H181.699V137.658H180.239L180.186 136.573C179.686 137.404 178.895 137.819 177.815 137.819ZM183.685 137.658V130.961H185.065L185.105 132.555C185.48 131.421 186.19 130.854 187.235 130.854C187.467 130.854 187.673 130.889 187.851 130.961V132.341C187.565 132.278 187.347 132.247 187.195 132.247C186.632 132.247 186.168 132.497 185.802 132.997C185.445 133.488 185.266 134.22 185.266 135.194V137.658H183.685ZM189.153 137.658V130.961H190.627L190.68 132.032C191.189 131.211 192.002 130.8 193.118 130.8C193.922 130.8 194.533 131.041 194.953 131.523C195.382 131.997 195.596 132.707 195.596 133.653V137.658H194.015V134.042C194.015 133.336 193.899 132.836 193.667 132.541C193.444 132.238 193.091 132.086 192.609 132.086C192.064 132.086 191.613 132.278 191.256 132.662C190.908 133.046 190.734 133.586 190.734 134.283V137.658H189.153ZM200.62 137.819C199.539 137.819 198.669 137.484 198.008 136.814C197.356 136.136 197.03 135.301 197.03 134.31C197.03 133.318 197.356 132.488 198.008 131.818C198.66 131.139 199.513 130.8 200.566 130.8C201.674 130.8 202.513 131.148 203.085 131.845C203.656 132.533 203.928 133.43 203.902 134.537H198.651C198.696 135.207 198.905 135.725 199.28 136.091C199.655 136.448 200.111 136.627 200.647 136.627C201.584 136.627 202.174 136.185 202.415 135.301H203.902C203.812 135.997 203.491 136.591 202.937 137.082C202.384 137.573 201.611 137.819 200.62 137.819ZM198.731 133.466H202.241C202.187 133.037 202.013 132.68 201.718 132.394C201.433 132.099 201.049 131.952 200.566 131.952C200.129 131.952 199.745 132.086 199.414 132.354C199.084 132.613 198.856 132.983 198.731 133.466ZM206.032 140.337C205.648 140.337 205.211 140.293 204.72 140.203V138.904C205.157 138.975 205.537 139.011 205.858 139.011C206.171 139.011 206.416 138.935 206.595 138.783C206.773 138.641 206.93 138.39 207.064 138.033L207.238 137.605L204.371 130.961H206.126L208.028 135.649L209.702 130.961H211.189L208.376 138.355C208.091 139.078 207.765 139.587 207.399 139.882C207.041 140.185 206.586 140.337 206.032 140.337Z" fill="black"/>
<path d="M301.473 128.069C300.155 128.069 296.925 125.235 294.026 122.335C291.125 119.435 288.291 116.205 288.291 114.887C288.291 113.569 291.125 110.339 294.026 107.439C296.925 104.539 300.155 101.705 301.473 101.705C302.791 101.705 306.021 104.539 308.922 107.439C311.821 110.339 314.655 113.569 314.655 114.887C314.655 116.205 311.821 119.435 308.922 122.335C306.021 125.235 302.791 128.069 301.473 128.069Z" fill="#FEBBAE"/>
<path d="M296.201 117.194C297.849 115.546 299.628 114.887 301.473 114.887C303.319 114.887 305.362 115.546 306.746 117.194" fill="#FEBBAE"/>
<path d="M301.474 128.728C301.012 128.728 300.485 128.531 299.826 128.135C299.299 127.806 298.64 127.344 297.915 126.817C296.663 125.828 295.146 124.444 293.499 122.796C291.851 121.149 290.467 119.633 289.479 118.38C288.885 117.655 288.424 116.996 288.16 116.469C287.83 115.876 287.633 115.349 287.633 114.887C287.633 114.426 287.83 113.899 288.226 113.239C288.555 112.712 289.017 112.053 289.544 111.328C290.533 110.142 291.917 108.626 293.565 106.978C295.212 105.33 296.729 103.946 297.981 102.957C298.706 102.364 299.365 101.903 299.893 101.639C300.485 101.244 301.012 101.046 301.474 101.046C301.936 101.046 302.463 101.244 303.122 101.639C303.649 101.969 304.308 102.43 305.033 102.957C306.219 103.946 307.736 105.33 309.383 106.978C311.031 108.626 312.415 110.142 313.404 111.394C313.997 112.119 314.458 112.778 314.722 113.305C315.118 113.964 315.315 114.492 315.315 114.953C315.315 115.414 315.118 115.942 314.722 116.601C314.393 117.128 313.931 117.787 313.404 118.512C312.415 119.765 311.031 121.28 309.383 122.928C307.736 124.576 306.219 125.96 304.967 126.949C304.242 127.542 303.583 128.003 303.055 128.267C302.463 128.531 301.936 128.728 301.474 128.728ZM301.474 102.364C301.408 102.364 301.145 102.364 300.485 102.76C300.024 103.023 299.431 103.485 298.772 104.012C297.585 105.001 296.07 106.319 294.487 107.901C292.906 109.482 291.522 110.998 290.598 112.185C290.072 112.844 289.676 113.437 289.346 113.899C288.951 114.558 288.951 114.821 288.951 114.887C288.951 114.953 288.951 115.217 289.346 115.876C289.61 116.337 290.005 116.93 290.598 117.59C291.588 118.776 292.906 120.292 294.487 121.874C296.07 123.455 297.585 124.84 298.772 125.762C299.431 126.29 300.024 126.685 300.485 127.015C301.145 127.41 301.408 127.41 301.474 127.41C301.54 127.41 301.804 127.41 302.463 127.015C302.924 126.751 303.517 126.29 304.176 125.762C305.363 124.774 306.878 123.455 308.461 121.874C310.042 120.292 311.426 118.776 312.35 117.59C312.876 116.93 313.272 116.337 313.602 115.876C313.997 115.217 313.997 114.953 313.997 114.887C313.997 114.821 313.997 114.558 313.602 113.899C313.338 113.437 312.876 112.844 312.35 112.185C311.36 110.998 310.042 109.482 308.461 107.901C306.878 106.319 305.363 104.935 304.176 104.012C303.517 103.485 302.924 103.089 302.463 102.76C301.804 102.364 301.54 102.364 301.474 102.364ZM296.464 117.919L295.542 116.996L295.74 116.733C297.388 115.019 299.233 114.228 301.474 114.228C303.847 114.228 305.89 115.151 307.274 116.799L307.472 117.062L306.484 117.919L306.285 117.655C305.1 116.271 303.451 115.546 301.474 115.546C299.628 115.546 298.047 116.205 296.663 117.655L296.464 117.919ZM299.431 112.844H298.113V109.548H299.431V112.844ZM304.638 112.844H303.32V109.548H304.638V112.844Z" fill="#A10216"/>
<path d="M59.0689 169.064C57.3318 169.064 56.123 168.164 56.123 166.872V166.861C56.123 165.893 56.8295 165.145 57.8341 164.941V164.91C56.9708 164.68 56.3951 164.047 56.3951 163.235V163.225C56.3951 162.063 57.5044 161.211 59.0689 161.211C60.6333 161.211 61.7426 162.063 61.7426 163.225V163.235C61.7426 164.047 61.1671 164.68 60.3037 164.91V164.941C61.3135 165.145 62.0147 165.893 62.0147 166.861V166.872C62.0147 168.164 60.806 169.064 59.0689 169.064ZM59.0689 164.481C59.8589 164.481 60.4084 164.02 60.4084 163.361V163.351C60.4084 162.691 59.8589 162.231 59.0689 162.231C58.2788 162.231 57.7294 162.691 57.7294 163.351V163.361C57.7294 164.02 58.2788 164.481 59.0689 164.481ZM59.0689 168.033C59.974 168.033 60.6176 167.51 60.6176 166.783V166.773C60.6176 166.04 59.9793 165.512 59.0689 165.512C58.1532 165.512 57.5201 166.04 57.5201 166.773V166.783C57.5201 167.51 58.1637 168.033 59.0689 168.033ZM63.7988 168.913L67.0796 162.55V162.466H63.1867V161.362H68.4399V162.487L65.2116 168.913H63.7988Z" fill="black"/>
<path d="M74.2793 168.913V161.362H75.2211V168.913H74.2793ZM77.0316 168.913V163.272H77.9419V164.12H78.0256C78.3082 163.523 78.8366 163.173 79.6686 163.173C80.9348 163.173 81.6412 163.921 81.6412 165.26V168.913H80.7307V165.48C80.7307 164.465 80.3122 163.978 79.4122 163.978C78.5123 163.978 77.9419 164.585 77.9419 165.574V168.913H77.0316ZM85.2253 169.012C83.9696 169.012 83.1062 168.405 83.0016 167.474H83.933C84.0847 167.945 84.5347 168.253 85.2567 168.253C86.0154 168.253 86.5543 167.892 86.5543 167.379V167.369C86.5543 166.987 86.2666 166.72 85.5707 166.553L84.6968 166.343C83.6399 166.092 83.1637 165.632 83.1637 164.821V164.816C83.1637 163.879 84.0638 163.173 85.262 163.173C86.4445 163.173 87.2659 163.764 87.3915 164.685H86.4968C86.3764 164.24 85.9369 163.931 85.2567 163.931C84.587 163.931 84.0951 164.277 84.0951 164.774V164.784C84.0951 165.166 84.3777 165.407 85.0422 165.569L85.9107 165.778C86.9729 166.035 87.4857 166.495 87.4857 167.301V167.311C87.4857 168.316 86.5072 169.012 85.2253 169.012ZM89.3798 162.184C89.0345 162.184 88.7519 161.901 88.7519 161.556C88.7519 161.211 89.0345 160.928 89.3798 160.928C89.7251 160.928 90.0076 161.211 90.0076 161.556C90.0076 161.901 89.7251 162.184 89.3798 162.184ZM88.9194 168.913V163.272H89.8298V168.913H88.9194ZM93.8691 170.901C92.5087 170.901 91.6401 170.289 91.4988 169.363L91.5093 169.357H92.4511L92.4564 169.363C92.5558 169.792 93.0581 170.095 93.8691 170.095C94.8789 170.095 95.4806 169.619 95.4806 168.787V167.646H95.397C95.0411 168.269 94.4028 168.62 93.6284 168.62C92.1686 168.62 91.2634 167.489 91.2634 165.909V165.899C91.2634 164.319 92.1738 163.173 93.6493 163.173C94.4447 163.173 95.0621 163.565 95.4074 164.203H95.4702V163.272H96.3806V168.834C96.3806 170.095 95.4074 170.901 93.8691 170.901ZM93.8273 167.814C94.8737 167.814 95.5016 167.029 95.5016 165.909V165.899C95.5016 164.779 94.8685 163.978 93.8273 163.978C92.7808 163.978 92.1947 164.779 92.1947 165.899V165.909C92.1947 167.029 92.7808 167.814 93.8273 167.814ZM98.1282 168.913V161.033H99.0386V164.12H99.1223C99.4048 163.523 99.9333 163.173 100.765 163.173C102.031 163.173 102.738 163.921 102.738 165.26V168.913H101.827V165.48C101.827 164.465 101.409 163.978 100.509 163.978C99.609 163.978 99.0386 164.585 99.0386 165.574V168.913H98.1282ZM106.39 168.954C105.228 168.954 104.742 168.525 104.742 167.448V164.026H103.852V163.272H104.742V161.812H105.684V163.272H106.918V164.026H105.684V167.217C105.684 167.882 105.914 168.149 106.5 168.149C106.662 168.149 106.751 168.143 106.918 168.128V168.902C106.741 168.933 106.568 168.954 106.39 168.954ZM110.11 169.012C108.854 169.012 107.991 168.405 107.886 167.474H108.818C108.97 167.945 109.42 168.253 110.142 168.253C110.9 168.253 111.439 167.892 111.439 167.379V167.369C111.439 166.987 111.151 166.72 110.455 166.553L109.582 166.343C108.525 166.092 108.049 165.632 108.049 164.821V164.816C108.049 163.879 108.949 163.173 110.147 163.173C111.329 163.173 112.151 163.764 112.276 164.685H111.382C111.261 164.24 110.822 163.931 110.142 163.931C109.472 163.931 108.98 164.277 108.98 164.774V164.784C108.98 165.166 109.263 165.407 109.927 165.569L110.796 165.778C111.858 166.035 112.371 166.495 112.371 167.301V167.311C112.371 168.316 111.392 169.012 110.11 169.012Z" fill="#56504D"/>
<path d="M127.747 168.913V162.691H127.658L125.779 164.02V162.749L127.752 161.362H129.097V168.913H127.747ZM133.926 169.064C132.272 169.064 131.19 168.164 131.09 166.872L131.084 166.809H132.372L132.378 166.867C132.451 167.505 133.042 167.96 133.926 167.96C134.8 167.96 135.381 167.474 135.381 166.773V166.762C135.381 165.967 134.795 165.527 133.827 165.527H132.937V164.523H133.8C134.632 164.523 135.187 164.052 135.187 163.392V163.382C135.187 162.691 134.722 162.283 133.915 162.283C133.12 162.283 132.57 162.707 132.503 163.382L132.497 163.434H131.242L131.247 163.377C131.362 162.069 132.393 161.211 133.915 161.211C135.47 161.211 136.479 162.022 136.479 163.204V163.215C136.479 164.151 135.805 164.774 134.899 164.962V164.988C136.008 165.093 136.746 165.752 136.746 166.799V166.809C136.746 168.138 135.6 169.064 133.926 169.064Z" fill="black"/>
<path d="M145.317 169.09C143.151 169.09 141.854 167.552 141.854 165.14V165.13C141.854 162.707 143.182 161.184 145.317 161.184C147.462 161.184 148.781 162.712 148.781 165.13V165.14C148.781 167.547 147.473 169.09 145.317 169.09ZM145.317 168.222C146.866 168.222 147.819 167.008 147.819 165.14V165.13C147.819 163.246 146.86 162.053 145.317 162.053C143.779 162.053 142.816 163.246 142.816 165.13V165.14C142.816 167.008 143.748 168.222 145.317 168.222ZM150.298 170.796V163.272H151.209V164.172H151.292C151.638 163.544 152.266 163.173 153.051 163.173C154.479 163.173 155.416 164.329 155.416 166.087V166.098C155.416 167.866 154.485 169.012 153.051 169.012C152.276 169.012 151.601 168.625 151.292 168.023H151.209V170.796H150.298ZM152.842 168.206C153.872 168.206 154.485 167.411 154.485 166.098V166.087C154.485 164.774 153.872 163.978 152.842 163.978C151.816 163.978 151.188 164.784 151.188 166.087V166.098C151.188 167.4 151.816 168.206 152.842 168.206ZM156.839 170.796V163.272H157.749V164.172H157.833C158.178 163.544 158.806 163.173 159.591 163.173C161.02 163.173 161.956 164.329 161.956 166.087V166.098C161.956 167.866 161.025 169.012 159.591 169.012C158.817 169.012 158.141 168.625 157.833 168.023H157.749V170.796H156.839ZM159.382 168.206C160.412 168.206 161.025 167.411 161.025 166.098V166.087C161.025 164.774 160.412 163.978 159.382 163.978C158.356 163.978 157.728 164.784 157.728 166.087V166.098C157.728 167.4 158.356 168.206 159.382 168.206ZM165.697 169.012C164.091 169.012 163.097 167.903 163.097 166.098V166.087C163.097 164.277 164.091 163.173 165.697 163.173C167.303 163.173 168.297 164.277 168.297 166.087V166.098C168.297 167.903 167.303 169.012 165.697 169.012ZM165.697 168.206C166.764 168.206 167.366 167.427 167.366 166.098V166.087C167.366 164.753 166.764 163.978 165.697 163.978C164.63 163.978 164.028 164.753 164.028 166.087V166.098C164.028 167.427 164.63 168.206 165.697 168.206ZM169.71 168.913V163.272H170.621V164.109H170.705C170.919 163.518 171.448 163.173 172.211 163.173C172.384 163.173 172.577 163.194 172.667 163.209V164.094C172.478 164.062 172.306 164.041 172.107 164.041C171.238 164.041 170.621 164.591 170.621 165.417V168.913H169.71ZM176.109 168.954C174.948 168.954 174.462 168.525 174.462 167.448V164.026H173.572V163.272H174.462V161.812H175.403V163.272H176.638V164.026H175.403V167.217C175.403 167.882 175.633 168.149 176.219 168.149C176.382 168.149 176.471 168.143 176.638 168.128V168.902C176.46 168.933 176.288 168.954 176.109 168.954ZM179.887 169.012C178.605 169.012 177.946 168.259 177.946 166.924V163.272H178.857V166.704C178.857 167.72 179.223 168.206 180.122 168.206C181.117 168.206 181.646 167.599 181.646 166.61V163.272H182.556V168.913H181.646V168.07H181.562C181.284 168.672 180.714 169.012 179.887 169.012ZM184.256 168.913V163.272H185.167V164.12H185.251C185.533 163.523 186.061 163.173 186.894 163.173C188.159 163.173 188.865 163.921 188.865 165.26V168.913H187.955V165.48C187.955 164.465 187.537 163.978 186.637 163.978C185.737 163.978 185.167 164.585 185.167 165.574V168.913H184.256ZM190.995 162.184C190.65 162.184 190.367 161.901 190.367 161.556C190.367 161.211 190.65 160.928 190.995 160.928C191.341 160.928 191.623 161.211 191.623 161.556C191.623 161.901 191.341 162.184 190.995 162.184ZM190.535 168.913V163.272H191.445V168.913H190.535ZM195.165 168.954C194.004 168.954 193.517 168.525 193.517 167.448V164.026H192.628V163.272H193.517V161.812H194.459V163.272H195.694V164.026H194.459V167.217C194.459 167.882 194.689 168.149 195.275 168.149C195.438 168.149 195.526 168.143 195.694 168.128V168.902C195.516 168.933 195.343 168.954 195.165 168.954ZM197.535 162.184C197.191 162.184 196.908 161.901 196.908 161.556C196.908 161.211 197.191 160.928 197.535 160.928C197.881 160.928 198.164 161.211 198.164 161.556C198.164 161.901 197.881 162.184 197.535 162.184ZM197.075 168.913V163.272H197.985V168.913H197.075ZM202.004 169.012C200.393 169.012 199.42 167.882 199.42 166.113V166.108C199.42 164.366 200.413 163.173 201.947 163.173C203.48 163.173 204.411 164.313 204.411 165.998V166.354H200.351C200.377 167.521 201.021 168.201 202.025 168.201C202.789 168.201 203.26 167.84 203.412 167.5L203.433 167.453H204.343L204.333 167.495C204.139 168.259 203.333 169.012 202.004 169.012ZM201.941 163.984C201.105 163.984 200.466 164.554 200.366 165.627H203.485C203.391 164.512 202.774 163.984 201.941 163.984ZM207.76 169.012C206.504 169.012 205.641 168.405 205.536 167.474H206.467C206.619 167.945 207.069 168.253 207.791 168.253C208.549 168.253 209.089 167.892 209.089 167.379V167.369C209.089 166.987 208.801 166.72 208.105 166.553L207.231 166.343C206.174 166.092 205.698 165.632 205.698 164.821V164.816C205.698 163.879 206.598 163.173 207.797 163.173C208.979 163.173 209.8 163.764 209.925 164.685H209.032C208.911 164.24 208.472 163.931 207.791 163.931C207.122 163.931 206.629 164.277 206.629 164.774V164.784C206.629 165.166 206.912 165.407 207.577 165.569L208.445 165.778C209.508 166.035 210.02 166.495 210.02 167.301V167.311C210.02 168.316 209.041 169.012 207.76 169.012Z" fill="#56504D"/>
<path d="M223.235 168.913V168.002L225.715 165.47C226.741 164.434 227.029 164.052 227.029 163.471V163.455C227.029 162.759 226.553 162.257 225.768 162.257C224.967 162.257 224.428 162.786 224.428 163.565L224.423 163.586L223.167 163.581L223.162 163.565C223.162 162.158 224.26 161.174 225.836 161.174C227.306 161.174 228.363 162.069 228.363 163.34V163.356C228.363 164.214 227.949 164.894 226.573 166.218L225.061 167.683V167.793H228.478V168.913H223.235ZM233.355 168.913V167.463H229.66V166.359C230.639 164.659 231.712 162.922 232.737 161.362H234.647V166.349H235.662V167.463H234.647V168.913H233.355ZM230.916 166.38H233.375V162.44H233.297C232.522 163.623 231.649 165.02 230.916 166.302V166.38Z" fill="black"/>
<path d="M243.742 169.09C242.089 169.09 241.021 168.222 240.912 166.992L240.906 166.935H241.848L241.853 166.992C241.922 167.746 242.706 168.222 243.794 168.222C244.82 168.222 245.569 167.693 245.569 166.924V166.919C245.569 166.291 245.134 165.862 244.098 165.632L243.261 165.449C241.748 165.114 241.095 164.418 241.095 163.324V163.319C241.1 162.069 242.193 161.184 243.752 161.184C245.26 161.184 246.311 162.074 246.389 163.199L246.395 163.272H245.453L245.443 163.204C245.338 162.54 244.71 162.048 243.726 162.053C242.784 162.058 242.057 162.503 242.057 163.293V163.298C242.057 163.9 242.471 164.308 243.496 164.533L244.334 164.721C245.908 165.072 246.531 165.705 246.531 166.793V166.799C246.531 168.211 245.427 169.09 243.742 169.09ZM250.303 169.012C248.697 169.012 247.703 167.903 247.703 166.098V166.087C247.703 164.277 248.697 163.173 250.303 163.173C251.91 163.173 252.903 164.277 252.903 166.087V166.098C252.903 167.903 251.91 169.012 250.303 169.012ZM250.303 168.206C251.371 168.206 251.972 167.427 251.972 166.098V166.087C251.972 164.753 251.371 163.978 250.303 163.978C249.236 163.978 248.634 164.753 248.634 166.087V166.098C248.634 167.427 249.236 168.206 250.303 168.206ZM254.369 168.913V161.033H255.28V168.913H254.369ZM258.916 169.012C257.634 169.012 256.975 168.259 256.975 166.924V163.272H257.885V166.704C257.885 167.72 258.252 168.206 259.151 168.206C260.146 168.206 260.674 167.599 260.674 166.61V163.272H261.584V168.913H260.674V168.07H260.59C260.313 168.672 259.743 169.012 258.916 169.012ZM265.289 168.954C264.127 168.954 263.641 168.525 263.641 167.448V164.026H262.751V163.272H263.641V161.812H264.583V163.272H265.817V164.026H264.583V167.217C264.583 167.882 264.812 168.149 265.399 168.149C265.561 168.149 265.65 168.143 265.817 168.128V168.902C265.639 168.933 265.467 168.954 265.289 168.954ZM267.659 162.184C267.313 162.184 267.031 161.901 267.031 161.556C267.031 161.211 267.313 160.928 267.659 160.928C268.005 160.928 268.287 161.211 268.287 161.556C268.287 161.901 268.005 162.184 267.659 162.184ZM267.198 168.913V163.272H268.109V168.913H267.198ZM272.143 169.012C270.536 169.012 269.542 167.903 269.542 166.098V166.087C269.542 164.277 270.536 163.173 272.143 163.173C273.749 163.173 274.743 164.277 274.743 166.087V166.098C274.743 167.903 273.749 169.012 272.143 169.012ZM272.143 168.206C273.211 168.206 273.812 167.427 273.812 166.098V166.087C273.812 164.753 273.211 163.978 272.143 163.978C271.076 163.978 270.474 164.753 270.474 166.087V166.098C270.474 167.427 271.076 168.206 272.143 168.206ZM276.156 168.913V163.272H277.067V164.12H277.151C277.433 163.523 277.961 163.173 278.794 163.173C280.06 163.173 280.766 163.921 280.766 165.26V168.913H279.855V165.48C279.855 164.465 279.437 163.978 278.536 163.978C277.637 163.978 277.067 164.585 277.067 165.574V168.913H276.156ZM284.35 169.012C283.094 169.012 282.231 168.405 282.126 167.474H283.058C283.209 167.945 283.66 168.253 284.381 168.253C285.14 168.253 285.679 167.892 285.679 167.379V167.369C285.679 166.987 285.391 166.72 284.695 166.553L283.821 166.343C282.765 166.092 282.289 165.632 282.289 164.821V164.816C282.289 163.879 283.188 163.173 284.386 163.173C285.569 163.173 286.39 163.764 286.516 164.685H285.621C285.501 164.24 285.062 163.931 284.381 163.931C283.711 163.931 283.22 164.277 283.22 164.774V164.784C283.22 165.166 283.502 165.407 284.167 165.569L285.036 165.778C286.097 166.035 286.61 166.495 286.61 167.301V167.311C286.61 168.316 285.632 169.012 284.35 169.012Z" fill="#56504D"/>
<path d="M56 151.267H574.822" stroke="#E8E8E8" stroke-width="0.892981"/>
<path d="M80.9082 332.775C80.9082 332.775 137.054 243.238 192.531 244.816C257.65 246.668 233.707 370.691 298.796 373.405C349.869 375.535 362.771 324.984 408.186 301.52C450.385 279.717 475.534 269.677 521.148 256.425" stroke="black" stroke-width="0.892981"/>
<path d="M117.074 321.166H46.5286C43.8161 321.166 41.6172 323.365 41.6172 326.077V336.793C41.6172 339.505 43.8161 341.704 46.5286 341.704H117.074C119.787 341.704 121.985 339.505 121.985 336.793V326.077C121.985 323.365 119.787 321.166 117.074 321.166Z" fill="white"/>
<path d="M117.074 321.166H46.5286C43.8161 321.166 41.6172 323.365 41.6172 326.077V336.793C41.6172 339.505 43.8161 341.704 46.5286 341.704H117.074C119.787 341.704 121.985 339.505 121.985 336.793V326.077C121.985 323.365 119.787 321.166 117.074 321.166Z" stroke="#0052CC" stroke-width="0.892981"/>
<path d="M56.4043 335.007V327.457H57.7543L60.1612 333.479H60.2448L62.6517 327.457H64.0017V335.007H62.9342V329.466H62.8558L60.6373 335.007H59.7687L57.5554 329.466H57.4718V335.007H56.4043ZM67.3242 335.101C66.2411 335.101 65.4406 334.442 65.4406 333.411V333.401C65.4406 332.385 66.2045 331.794 67.5596 331.711L69.0979 331.622V331.119C69.0979 330.497 68.7055 330.151 67.9363 330.151C67.3085 330.151 66.8951 330.381 66.759 330.784L66.7539 330.806H65.6603L65.6655 330.769C65.8016 329.838 66.6963 329.215 67.9887 329.215C69.4171 329.215 70.2229 329.927 70.2229 331.119V335.007H69.0979V334.202H69.009C68.6741 334.777 68.0776 335.101 67.3242 335.101ZM66.5707 333.364C66.5707 333.887 67.0155 334.196 67.6276 334.196C68.4753 334.196 69.0979 333.642 69.0979 332.909V332.422L67.7114 332.511C66.9266 332.558 66.5707 332.841 66.5707 333.353V333.364ZM71.8239 335.007V329.325H72.9594V330.183H73.0431C73.2472 329.581 73.7756 329.225 74.5343 329.225C74.7175 329.225 74.9162 329.252 75.0313 329.278V330.324C74.8273 330.282 74.6337 330.256 74.4192 330.256C73.5506 330.256 72.9594 330.789 72.9594 331.611V335.007H71.8239ZM76.1668 335.007V327.096H77.3022V331.721H77.3859L79.641 329.325H80.97L78.5998 331.721L81.127 335.007H79.7457L77.7888 332.454L77.3022 332.941V335.007H76.1668ZM84.2559 335.117C82.592 335.117 81.5874 333.982 81.5874 332.182V332.176C81.5874 330.403 82.613 329.215 84.1983 329.215C85.7837 329.215 86.757 330.361 86.757 332.066V332.464H82.7281C82.749 333.552 83.3455 334.185 84.2821 334.185C85.0094 334.185 85.4437 333.825 85.5797 333.532L85.6007 333.49L86.6942 333.485L86.6838 333.532C86.4954 334.28 85.7105 335.117 84.2559 335.117ZM84.2036 330.147C83.4292 330.147 82.8432 330.674 82.7438 331.653H85.632C85.5431 330.638 84.9727 330.147 84.2036 330.147ZM90.2521 335.044C89.0017 335.044 88.4888 334.604 88.4888 333.51V330.22H87.5993V329.325H88.4888V327.891H89.6453V329.325H90.8643V330.22H89.6453V333.239C89.6453 333.851 89.8755 334.102 90.4353 334.102C90.608 334.102 90.7074 334.096 90.8643 334.081V334.986C90.6812 335.018 90.4719 335.044 90.2521 335.044ZM92.7794 328.31C92.387 328.31 92.0677 327.991 92.0677 327.603C92.0677 327.211 92.387 326.892 92.7794 326.892C93.1665 326.892 93.491 327.211 93.491 327.603C93.491 327.991 93.1665 328.31 92.7794 328.31ZM92.209 335.007V329.325H93.3393V335.007H92.209ZM94.9926 335.007V329.325H96.128V330.189H96.2118C96.4891 329.581 97.0332 329.215 97.86 329.215C99.1314 329.215 99.8326 329.973 99.8326 331.329V335.007H98.7023V331.596C98.7023 330.654 98.3099 330.189 97.478 330.189C96.646 330.189 96.128 330.758 96.128 331.674V335.007H94.9926ZM103.82 337.011C102.375 337.011 101.486 336.378 101.35 335.431L101.36 335.42H102.506L102.512 335.431C102.606 335.823 103.066 336.101 103.835 336.101C104.772 336.101 105.326 335.661 105.326 334.886V333.767H105.243C104.897 334.385 104.27 334.729 103.49 334.729C102.03 334.729 101.13 333.605 101.13 332.004V331.993C101.13 330.372 102.035 329.225 103.511 329.225C104.306 329.225 104.924 329.618 105.253 330.256H105.321V329.325H106.451V334.892C106.451 336.184 105.431 337.011 103.82 337.011ZM103.804 333.793C104.767 333.793 105.347 333.06 105.347 331.999V331.988C105.347 330.931 104.761 330.189 103.804 330.189C102.836 330.189 102.292 330.931 102.292 331.988V331.999C102.292 333.055 102.836 333.793 103.804 333.793Z" fill="#0052CC"/>
<path d="M215.301 233.654H168.866C166.154 233.654 163.955 235.853 163.955 238.565V249.281C163.955 251.993 166.154 254.192 168.866 254.192H215.301C218.014 254.192 220.213 251.993 220.213 249.281V238.565C220.213 235.853 218.014 233.654 215.301 233.654Z" fill="white"/>
<path d="M215.301 233.654H168.866C166.154 233.654 163.955 235.853 163.955 238.565V249.281C163.955 251.993 166.154 254.192 168.866 254.192H215.301C218.014 254.192 220.213 251.993 220.213 249.281V238.565C220.213 235.853 218.014 233.654 215.301 233.654Z" stroke="#0052CC" stroke-width="0.892981"/>
<path d="M181.296 247.678C179.59 247.678 178.497 246.814 178.392 245.543L178.387 245.475H179.538L179.543 245.533C179.606 246.218 180.333 246.657 181.343 246.657C182.306 246.657 182.991 246.176 182.991 245.475V245.47C182.991 244.889 182.583 244.512 181.584 244.298L180.757 244.12C179.224 243.795 178.564 243.084 178.564 241.969V241.965C178.57 240.662 179.7 239.762 181.301 239.762C182.903 239.762 183.949 240.667 184.032 241.839L184.038 241.912H182.903L182.892 241.844C182.793 241.226 182.202 240.777 181.285 240.781C180.401 240.781 179.748 241.195 179.748 241.907V241.912C179.748 242.472 180.145 242.838 181.124 243.048L181.944 243.231C183.53 243.57 184.179 244.209 184.179 245.329V245.334C184.179 246.778 183.054 247.678 181.296 247.678ZM187.119 247.589C186.037 247.589 185.236 246.93 185.236 245.899V245.888C185.236 244.873 186 244.282 187.355 244.199L188.894 244.11V243.607C188.894 242.984 188.501 242.639 187.732 242.639C187.104 242.639 186.691 242.869 186.555 243.272L186.549 243.293H185.456L185.461 243.257C185.597 242.325 186.491 241.703 187.784 241.703C189.212 241.703 190.019 242.415 190.019 243.607V247.495H188.894V246.689H188.804C188.469 247.265 187.873 247.589 187.119 247.589ZM186.366 245.852C186.366 246.375 186.811 246.684 187.423 246.684C188.27 246.684 188.894 246.13 188.894 245.396V244.91L187.507 244.999C186.722 245.046 186.366 245.329 186.366 245.841V245.852ZM191.672 247.495V239.584H192.807V247.495H191.672ZM196.883 247.605C195.219 247.605 194.215 246.47 194.215 244.67V244.664C194.215 242.891 195.24 241.703 196.826 241.703C198.411 241.703 199.384 242.849 199.384 244.554V244.952H195.355C195.377 246.04 195.972 246.673 196.909 246.673C197.637 246.673 198.071 246.313 198.206 246.02L198.228 245.978L199.321 245.972L199.311 246.02C199.123 246.768 198.338 247.605 196.883 247.605ZM196.83 242.634C196.056 242.634 195.47 243.162 195.371 244.141H198.259C198.17 243.126 197.6 242.634 196.83 242.634ZM202.801 247.605C201.43 247.605 200.561 246.961 200.451 246.009V246.004H201.587L201.592 246.009C201.734 246.438 202.147 246.726 202.821 246.726C203.523 246.726 204.009 246.406 204.009 245.941V245.93C204.009 245.575 203.743 245.334 203.083 245.182L202.178 244.973C201.106 244.727 200.609 244.24 200.609 243.409V243.403C200.609 242.415 201.529 241.703 202.817 241.703C204.114 241.703 204.946 242.351 205.046 243.277V243.283H203.963V243.272C203.853 242.875 203.45 242.576 202.812 242.576C202.188 242.576 201.738 242.885 201.738 243.341V243.351C201.738 243.707 202 243.927 202.638 244.078L203.538 244.282C204.632 244.538 205.156 245.004 205.156 245.826V245.837C205.156 246.888 204.151 247.605 202.801 247.605Z" fill="#0052CC"/>
<path d="M554.635 244.369H479.624C476.912 244.369 474.713 246.568 474.713 249.281V259.997C474.713 262.709 476.912 264.908 479.624 264.908H554.635C557.347 264.908 559.546 262.709 559.546 259.997V249.281C559.546 246.568 557.347 244.369 554.635 244.369Z" fill="white"/>
<path d="M554.635 244.369H479.624C476.912 244.369 474.713 246.568 474.713 249.281V259.997C474.713 262.709 476.912 264.908 479.624 264.908H554.635C557.347 264.908 559.546 262.709 559.546 259.997V249.281C559.546 246.568 557.347 244.369 554.635 244.369Z" stroke="#0052CC" stroke-width="0.892981"/>
<path d="M492.718 258.394C490.52 258.394 489.191 256.86 489.191 254.438V254.428C489.191 252 490.551 250.477 492.718 250.477C494.89 250.477 496.239 252.005 496.239 254.428V254.438C496.239 256.855 494.899 258.394 492.718 258.394ZM492.718 257.358C494.152 257.358 495.041 256.207 495.041 254.438V254.428C495.041 252.644 494.147 251.513 492.718 251.513C491.289 251.513 490.39 252.644 490.39 254.428V254.438C490.39 256.207 491.263 257.358 492.718 257.358ZM497.699 260.105V252.529H498.835V253.423H498.918C499.248 252.8 499.871 252.429 500.665 252.429C502.099 252.429 503.02 253.575 503.02 255.364V255.375C503.02 257.175 502.11 258.304 500.665 258.304C499.886 258.304 499.221 257.923 498.918 257.311H498.835V260.105H497.699ZM500.347 257.336C501.294 257.336 501.864 256.594 501.864 255.375V255.364C501.864 254.14 501.294 253.402 500.347 253.402C499.399 253.402 498.813 254.15 498.813 255.364V255.375C498.813 256.589 499.399 257.336 500.347 257.336ZM506.772 258.321C505.108 258.321 504.103 257.186 504.103 255.385V255.38C504.103 253.606 505.128 252.419 506.714 252.419C508.299 252.419 509.273 253.565 509.273 255.27V255.667H505.244C505.265 256.756 505.862 257.389 506.798 257.389C507.525 257.389 507.959 257.028 508.096 256.735L508.116 256.694L509.21 256.688L509.2 256.735C509.011 257.484 508.226 258.321 506.772 258.321ZM506.72 253.35C505.946 253.35 505.359 253.878 505.26 254.857H508.148C508.059 253.841 507.489 253.35 506.72 253.35ZM510.623 258.211V252.529H511.758V253.387H511.842C512.046 252.785 512.574 252.429 513.333 252.429C513.516 252.429 513.715 252.455 513.831 252.481V253.528C513.626 253.486 513.432 253.46 513.218 253.46C512.349 253.46 511.758 253.993 511.758 254.815V258.211H510.623ZM516.431 258.304C515.348 258.304 514.547 257.645 514.547 256.615V256.604C514.547 255.589 515.311 254.998 516.666 254.915L518.204 254.825V254.323C518.204 253.7 517.812 253.355 517.043 253.355C516.415 253.355 516.001 253.585 515.866 253.988L515.86 254.009H514.766L514.772 253.973C514.908 253.041 515.803 252.419 517.095 252.419C518.523 252.419 519.33 253.131 519.33 254.323V258.211H518.204V257.405H518.115C517.78 257.98 517.184 258.304 516.431 258.304ZM515.677 256.568C515.677 257.091 516.122 257.4 516.735 257.4C517.582 257.4 518.204 256.845 518.204 256.112V255.626L516.818 255.715C516.033 255.762 515.677 256.044 515.677 256.557V256.568ZM523.076 258.247C521.825 258.247 521.313 257.808 521.313 256.714V253.423H520.423V252.529H521.313V251.095H522.468V252.529H523.688V253.423H522.468V256.443C522.468 257.054 522.699 257.305 523.259 257.305C523.432 257.305 523.531 257.3 523.688 257.285V258.19C523.505 258.221 523.295 258.247 523.076 258.247ZM525.603 251.513C525.211 251.513 524.891 251.195 524.891 250.807C524.891 250.415 525.211 250.095 525.603 250.095C525.99 250.095 526.314 250.415 526.314 250.807C526.314 251.195 525.99 251.513 525.603 251.513ZM525.033 258.211V252.529H526.163V258.211H525.033ZM530.223 258.321C528.554 258.321 527.533 257.206 527.533 255.375V255.364C527.533 253.539 528.559 252.419 530.223 252.419C531.881 252.419 532.907 253.533 532.907 255.364V255.375C532.907 257.206 531.887 258.321 530.223 258.321ZM530.223 257.373C531.196 257.373 531.751 256.63 531.751 255.375V255.364C531.751 254.103 531.196 253.365 530.223 253.365C529.244 253.365 528.695 254.103 528.695 255.364V255.375C528.695 256.635 529.244 257.373 530.223 257.373ZM534.263 258.211V252.529H535.398V253.392H535.482C535.759 252.785 536.303 252.419 537.129 252.419C538.401 252.419 539.102 253.177 539.102 254.532V258.211H537.972V254.799C537.972 253.857 537.579 253.392 536.748 253.392C535.916 253.392 535.398 253.962 535.398 254.878V258.211H534.263ZM542.754 258.321C541.384 258.321 540.515 257.677 540.405 256.725V256.719H541.541L541.546 256.725C541.687 257.153 542.101 257.442 542.776 257.442C543.477 257.442 543.963 257.122 543.963 256.657V256.646C543.963 256.291 543.696 256.05 543.037 255.898L542.132 255.689C541.059 255.442 540.562 254.956 540.562 254.124V254.119C540.562 253.131 541.483 252.419 542.77 252.419C544.068 252.419 544.9 253.067 544.999 253.993V253.998H543.916V253.988C543.806 253.59 543.403 253.292 542.765 253.292C542.143 253.292 541.692 253.601 541.692 254.057V254.066C541.692 254.423 541.954 254.642 542.593 254.794L543.492 254.998C544.586 255.254 545.109 255.72 545.109 256.542V256.552C545.109 257.603 544.104 258.321 542.754 258.321Z" fill="#0052CC"/>
<path d="M329.602 363.136H270.665C267.953 363.136 265.754 365.335 265.754 368.047V378.763C265.754 381.476 267.953 383.675 270.665 383.675H329.602C332.315 383.675 334.513 381.476 334.513 378.763V368.047C334.513 365.335 332.315 363.136 329.602 363.136Z" fill="white"/>
<path d="M329.602 363.136H270.665C267.953 363.136 265.754 365.335 265.754 368.047V378.763C265.754 381.476 267.953 383.675 270.665 383.675H329.602C332.315 383.675 334.513 381.476 334.513 378.763V368.047C334.513 365.335 332.315 363.136 329.602 363.136Z" stroke="#0052CC" stroke-width="0.892981"/>
<path d="M280.543 376.977V369.427H283.484C284.964 369.427 285.989 370.421 285.989 371.902V371.912C285.989 373.387 284.964 374.397 283.484 374.397H281.715V376.977H280.543ZM283.19 370.416H281.715V373.414H283.19C284.205 373.414 284.796 372.865 284.796 371.918V371.907C284.796 370.966 284.205 370.416 283.19 370.416ZM287.371 376.977V371.295H288.507V372.153H288.59C288.794 371.551 289.323 371.195 290.081 371.195C290.264 371.195 290.463 371.222 290.578 371.248V372.294C290.374 372.252 290.181 372.227 289.966 372.227C289.098 372.227 288.507 372.76 288.507 373.581V376.977H287.371ZM293.922 377.087C292.253 377.087 291.232 375.973 291.232 374.141V374.13C291.232 372.305 292.258 371.185 293.922 371.185C295.58 371.185 296.606 372.3 296.606 374.13V374.141C296.606 375.973 295.585 377.087 293.922 377.087ZM293.922 376.14C294.895 376.14 295.449 375.397 295.449 374.141V374.13C295.449 372.87 294.895 372.132 293.922 372.132C292.943 372.132 292.394 372.87 292.394 374.13V374.141C292.394 375.402 292.943 376.14 293.922 376.14ZM300.033 377.071C298.604 377.071 297.678 375.925 297.678 374.141V374.13C297.678 372.331 298.589 371.195 300.033 371.195C300.813 371.195 301.477 371.583 301.781 372.195H301.869V369.066H303V376.977H301.869V376.082H301.781C301.451 376.705 300.828 377.071 300.033 377.071ZM300.357 376.103C301.305 376.103 301.885 375.356 301.885 374.141V374.13C301.885 372.917 301.299 372.169 300.357 372.169C299.405 372.169 298.835 372.911 298.835 374.13V374.141C298.835 375.36 299.405 376.103 300.357 376.103ZM306.584 377.087C305.302 377.087 304.637 376.318 304.637 374.973V371.295H305.772V374.706C305.772 375.648 306.118 376.114 306.95 376.114C307.86 376.114 308.347 375.544 308.347 374.628V371.295H309.477V376.977H308.347V376.119H308.258C307.986 376.732 307.41 377.087 306.584 377.087ZM313.506 377.087C311.847 377.087 310.832 375.957 310.832 374.121V374.11C310.832 372.31 311.842 371.185 313.501 371.185C314.929 371.185 315.782 371.991 315.939 373.095V373.121L314.85 373.127L314.846 373.111C314.72 372.551 314.259 372.132 313.506 372.132C312.559 372.132 311.988 372.886 311.988 374.11V374.121C311.988 375.376 312.57 376.14 313.506 376.14C314.217 376.14 314.658 375.815 314.841 375.204L314.85 375.177H315.939L315.929 375.224C315.725 376.328 314.914 377.087 313.506 377.087ZM319.456 377.014C318.204 377.014 317.692 376.574 317.692 375.481V372.19H316.802V371.295H317.692V369.861H318.848V371.295H320.067V372.19H318.848V375.209C318.848 375.821 319.079 376.072 319.639 376.072C319.811 376.072 319.91 376.066 320.067 376.051V376.957C319.884 376.988 319.675 377.014 319.456 377.014Z" fill="#0052CC"/>
<path d="M436.761 291.697H379.611C376.898 291.697 374.699 293.896 374.699 296.609V307.325C374.699 310.037 376.898 312.236 379.611 312.236H436.761C439.474 312.236 441.673 310.037 441.673 307.325V296.609C441.673 293.896 439.474 291.697 436.761 291.697Z" fill="white"/>
<path d="M436.761 291.697H379.611C376.898 291.697 374.699 293.896 374.699 296.609V307.325C374.699 310.037 376.898 312.236 379.611 312.236H436.761C439.474 312.236 441.673 310.037 441.673 307.325V296.609C441.673 293.896 439.474 291.697 436.761 291.697Z" stroke="#0052CC" stroke-width="0.892981"/>
<path d="M392.04 305.722C390.335 305.722 389.241 304.858 389.136 303.587L389.131 303.519H390.282L390.287 303.577C390.35 304.262 391.078 304.701 392.088 304.701C393.05 304.701 393.735 304.22 393.735 303.519V303.513C393.735 302.933 393.327 302.556 392.328 302.342L391.501 302.164C389.968 301.839 389.309 301.128 389.309 300.013V300.008C389.314 298.706 390.444 297.805 392.046 297.805C393.647 297.805 394.693 298.711 394.776 299.883L394.782 299.956H393.647L393.636 299.888C393.537 299.27 392.946 298.821 392.029 298.825C391.145 298.825 390.492 299.239 390.492 299.95V299.956C390.492 300.516 390.889 300.882 391.868 301.092L392.689 301.275C394.274 301.614 394.923 302.253 394.923 303.372V303.378C394.923 304.822 393.798 305.722 392.04 305.722ZM398.721 305.649C397.058 305.649 396.053 304.514 396.053 302.713V302.708C396.053 300.934 397.078 299.747 398.664 299.747C400.249 299.747 401.223 300.893 401.223 302.598V302.995H397.194C397.215 304.084 397.812 304.717 398.748 304.717C399.475 304.717 399.909 304.356 400.046 304.063L400.066 304.022L401.16 304.016L401.15 304.063C400.961 304.812 400.176 305.649 398.721 305.649ZM398.67 300.678C397.895 300.678 397.309 301.206 397.21 302.185H400.098C400.009 301.169 399.439 300.678 398.67 300.678ZM402.573 305.539V299.857H403.708V300.715H403.792C403.996 300.113 404.524 299.757 405.283 299.757C405.466 299.757 405.665 299.783 405.781 299.809V300.856C405.576 300.814 405.382 300.788 405.168 300.788C404.299 300.788 403.708 301.321 403.708 302.143V305.539H402.573ZM408.501 305.539L406.445 299.857H407.648L409.066 304.388H409.155L410.568 299.857H411.761L409.71 305.539H408.501ZM413.492 298.841C413.1 298.841 412.781 298.523 412.781 298.135C412.781 297.743 413.1 297.423 413.492 297.423C413.88 297.423 414.204 297.743 414.204 298.135C414.204 298.523 413.88 298.841 413.492 298.841ZM412.923 305.539V299.857H414.052V305.539H412.923ZM418.097 305.649C416.438 305.649 415.423 304.518 415.423 302.682V302.671C415.423 300.871 416.433 299.747 418.092 299.747C419.52 299.747 420.373 300.552 420.53 301.656V301.683L419.441 301.688L419.437 301.672C419.311 301.112 418.85 300.693 418.097 300.693C417.15 300.693 416.579 301.447 416.579 302.671V302.682C416.579 303.938 417.161 304.701 418.097 304.701C418.808 304.701 419.248 304.377 419.432 303.765L419.441 303.738H420.53L420.519 303.786C420.316 304.889 419.505 305.649 418.097 305.649ZM424.204 305.649C422.539 305.649 421.534 304.514 421.534 302.713V302.708C421.534 300.934 422.561 299.747 424.146 299.747C425.731 299.747 426.704 300.893 426.704 302.598V302.995H422.676C422.696 304.084 423.293 304.717 424.23 304.717C424.956 304.717 425.391 304.356 425.527 304.063L425.548 304.022L426.641 304.016L426.631 304.063C426.442 304.812 425.657 305.649 424.204 305.649ZM424.151 300.678C423.377 300.678 422.79 301.206 422.691 302.185H425.58C425.49 301.169 424.92 300.678 424.151 300.678Z" fill="#0052CC"/>
<rect x="48" y="122" width="180" height="22" fill="white"/>
<path d="M64.331 135.217H62.7372C62.6918 134.956 62.608 134.724 62.4858 134.523C62.3636 134.318 62.2116 134.145 62.0298 134.003C61.848 133.861 61.6406 133.754 61.4077 133.683C61.1776 133.609 60.929 133.572 60.6619 133.572C60.1875 133.572 59.767 133.692 59.4006 133.93C59.0341 134.166 58.7472 134.513 58.5398 134.97C58.3324 135.425 58.2287 135.98 58.2287 136.636C58.2287 137.304 58.3324 137.866 58.5398 138.324C58.75 138.778 59.0369 139.122 59.4006 139.355C59.767 139.585 60.1861 139.7 60.6577 139.7C60.919 139.7 61.1634 139.666 61.3906 139.598C61.6207 139.527 61.8267 139.423 62.0085 139.287C62.1932 139.151 62.348 138.983 62.473 138.784C62.6009 138.585 62.6889 138.358 62.7372 138.102L64.331 138.111C64.2713 138.526 64.142 138.915 63.9432 139.278C63.7472 139.642 63.4901 139.963 63.1719 140.241C62.8537 140.517 62.4815 140.733 62.0554 140.889C61.6293 141.043 61.1563 141.119 60.6364 141.119C59.8693 141.119 59.1847 140.942 58.5824 140.587C57.9801 140.232 57.5057 139.719 57.1591 139.048C56.8125 138.378 56.6392 137.574 56.6392 136.636C56.6392 135.696 56.8139 134.892 57.1634 134.224C57.5128 133.554 57.9886 133.041 58.5909 132.686C59.1932 132.331 59.875 132.153 60.6364 132.153C61.1222 132.153 61.5739 132.222 61.9915 132.358C62.4091 132.494 62.7813 132.695 63.108 132.959C63.4347 133.22 63.7031 133.541 63.9134 133.922C64.1264 134.3 64.2656 134.732 64.331 135.217ZM69.6425 138.247V134.455H71.1851V141H69.6893V139.837H69.6212C69.4734 140.203 69.2305 140.503 68.8925 140.736C68.5572 140.969 68.1439 141.085 67.6524 141.085C67.2234 141.085 66.8442 140.99 66.5146 140.8C66.1879 140.607 65.9322 140.327 65.7476 139.96C65.5629 139.591 65.4706 139.145 65.4706 138.622V134.455H67.0132V138.384C67.0132 138.798 67.1268 139.128 67.3541 139.372C67.5814 139.616 67.8797 139.739 68.249 139.739C68.4763 139.739 68.6964 139.683 68.9095 139.572C69.1226 139.462 69.2973 139.297 69.4337 139.078C69.5729 138.857 69.6425 138.58 69.6425 138.247ZM77.7047 136.185L76.2984 136.338C76.2586 136.196 76.189 136.062 76.0896 135.938C75.993 135.812 75.8623 135.712 75.6976 135.635C75.5328 135.558 75.3311 135.52 75.0924 135.52C74.7714 135.52 74.5015 135.589 74.2828 135.729C74.0669 135.868 73.9603 136.048 73.9632 136.27C73.9603 136.46 74.0299 136.615 74.172 136.734C74.3169 136.854 74.5555 136.952 74.8879 137.028L76.0044 137.267C76.6237 137.401 77.0839 137.612 77.3851 137.902C77.689 138.192 77.8424 138.571 77.8453 139.04C77.8424 139.452 77.7217 139.815 77.4831 140.131C77.2473 140.443 76.9191 140.687 76.4987 140.864C76.0782 141.04 75.5953 141.128 75.0498 141.128C74.2487 141.128 73.6038 140.96 73.1152 140.625C72.6265 140.287 72.3353 139.817 72.2416 139.214L73.7459 139.07C73.814 139.365 73.9589 139.588 74.1805 139.739C74.4021 139.889 74.6905 139.964 75.0456 139.964C75.412 139.964 75.7061 139.889 75.9277 139.739C76.1521 139.588 76.2643 139.402 76.2643 139.18C76.2643 138.993 76.1919 138.838 76.047 138.716C75.9049 138.594 75.6834 138.5 75.3822 138.435L74.2657 138.2C73.6379 138.07 73.1734 137.849 72.8723 137.54C72.5711 137.227 72.422 136.832 72.4248 136.355C72.422 135.952 72.5314 135.602 72.753 135.307C72.9774 135.009 73.2885 134.778 73.6862 134.616C74.0868 134.452 74.5484 134.369 75.0711 134.369C75.8382 134.369 76.4419 134.533 76.8822 134.859C77.3254 135.186 77.5995 135.628 77.7047 136.185ZM82.1458 134.455V135.648H78.383V134.455H82.1458ZM79.312 132.886H80.8546V139.031C80.8546 139.239 80.8858 139.398 80.9483 139.509C81.0137 139.616 81.0989 139.69 81.204 139.73C81.3091 139.77 81.4256 139.79 81.5534 139.79C81.65 139.79 81.7381 139.783 81.8176 139.768C81.9 139.754 81.9625 139.741 82.0051 139.73L82.2651 140.936C82.1827 140.964 82.0648 140.996 81.9114 141.03C81.7608 141.064 81.5762 141.084 81.3574 141.089C80.9711 141.101 80.623 141.043 80.3134 140.915C80.0037 140.784 79.758 140.582 79.5762 140.31C79.3972 140.037 79.3091 139.696 79.312 139.287V132.886ZM85.9807 141.128C85.3415 141.128 84.7875 140.987 84.3188 140.706C83.85 140.425 83.4864 140.031 83.2279 139.526C82.9722 139.02 82.8443 138.429 82.8443 137.753C82.8443 137.077 82.9722 136.484 83.2279 135.976C83.4864 135.467 83.85 135.072 84.3188 134.791C84.7875 134.51 85.3415 134.369 85.9807 134.369C86.6199 134.369 87.1739 134.51 87.6426 134.791C88.1114 135.072 88.4736 135.467 88.7293 135.976C88.9878 136.484 89.1171 137.077 89.1171 137.753C89.1171 138.429 88.9878 139.02 88.7293 139.526C88.4736 140.031 88.1114 140.425 87.6426 140.706C87.1739 140.987 86.6199 141.128 85.9807 141.128ZM85.9892 139.892C86.3358 139.892 86.6256 139.797 86.8585 139.607C87.0915 139.413 87.2648 139.155 87.3784 138.831C87.4949 138.507 87.5531 138.146 87.5531 137.749C87.5531 137.348 87.4949 136.986 87.3784 136.662C87.2648 136.335 87.0915 136.075 86.8585 135.882C86.6256 135.689 86.3358 135.592 85.9892 135.592C85.6341 135.592 85.3387 135.689 85.1029 135.882C84.8699 136.075 84.6952 136.335 84.5787 136.662C84.4651 136.986 84.4083 137.348 84.4083 137.749C84.4083 138.146 84.4651 138.507 84.5787 138.831C84.6952 139.155 84.8699 139.413 85.1029 139.607C85.3387 139.797 85.6341 139.892 85.9892 139.892ZM90.1864 141V134.455H91.6608V135.567H91.7375C91.8739 135.192 92.0997 134.899 92.4151 134.689C92.7304 134.476 93.1068 134.369 93.5443 134.369C93.9875 134.369 94.3611 134.477 94.6651 134.693C94.9719 134.906 95.1878 135.197 95.3128 135.567H95.381C95.5259 135.203 95.7702 134.913 96.1139 134.697C96.4605 134.479 96.871 134.369 97.3455 134.369C97.9477 134.369 98.4392 134.56 98.8199 134.94C99.2006 135.321 99.3909 135.876 99.3909 136.607V141H97.844V136.845C97.844 136.439 97.7361 136.142 97.5202 135.955C97.3043 135.764 97.0401 135.669 96.7276 135.669C96.3554 135.669 96.0642 135.786 95.854 136.018C95.6466 136.249 95.5429 136.548 95.5429 136.918V141H94.0301V136.781C94.0301 136.443 93.9278 136.173 93.7233 135.972C93.5216 135.77 93.2574 135.669 92.9307 135.669C92.7091 135.669 92.5074 135.726 92.3256 135.839C92.1437 135.95 91.9989 136.108 91.8909 136.312C91.783 136.514 91.729 136.75 91.729 137.02V141H90.1864ZM103.614 141.128C102.957 141.128 102.391 140.991 101.913 140.719C101.439 140.443 101.074 140.054 100.818 139.551C100.562 139.045 100.435 138.45 100.435 137.766C100.435 137.092 100.562 136.501 100.818 135.993C101.077 135.482 101.437 135.084 101.901 134.8C102.364 134.513 102.908 134.369 103.533 134.369C103.936 134.369 104.317 134.435 104.675 134.565C105.035 134.693 105.354 134.892 105.629 135.162C105.908 135.432 106.126 135.776 106.285 136.193C106.445 136.608 106.524 137.102 106.524 137.676V138.149H101.159V137.109H105.045C105.043 136.814 104.979 136.551 104.854 136.321C104.729 136.088 104.554 135.905 104.33 135.771C104.108 135.638 103.849 135.571 103.554 135.571C103.239 135.571 102.962 135.648 102.723 135.801C102.484 135.952 102.298 136.151 102.165 136.398C102.034 136.642 101.967 136.911 101.964 137.203V138.111C101.964 138.491 102.034 138.818 102.173 139.091C102.312 139.361 102.507 139.568 102.757 139.713C103.007 139.855 103.3 139.926 103.635 139.926C103.859 139.926 104.062 139.895 104.244 139.832C104.426 139.767 104.584 139.672 104.717 139.547C104.851 139.422 104.952 139.267 105.02 139.082L106.46 139.244C106.369 139.625 106.196 139.957 105.94 140.241C105.687 140.523 105.364 140.741 104.969 140.898C104.574 141.051 104.122 141.128 103.614 141.128ZM107.589 141V134.455H109.085V135.545H109.153C109.272 135.168 109.477 134.876 109.767 134.672C110.059 134.464 110.393 134.361 110.768 134.361C110.853 134.361 110.949 134.365 111.054 134.374C111.162 134.379 111.251 134.389 111.322 134.403V135.822C111.257 135.8 111.153 135.78 111.011 135.763C110.872 135.743 110.737 135.733 110.606 135.733C110.325 135.733 110.072 135.794 109.848 135.916C109.626 136.036 109.451 136.202 109.324 136.415C109.196 136.628 109.132 136.874 109.132 137.152V141H107.589ZM114.844 134.455H116.386V141.375C116.386 141.847 116.297 142.236 116.118 142.543C115.939 142.849 115.68 143.078 115.342 143.229C115.004 143.379 114.594 143.455 114.111 143.455C114.054 143.455 114.001 143.453 113.953 143.45C113.905 143.45 113.852 143.449 113.795 143.446V142.189C113.838 142.192 113.876 142.193 113.91 142.193C113.944 142.196 113.98 142.197 114.017 142.197C114.312 142.197 114.524 142.125 114.652 141.98C114.78 141.838 114.844 141.629 114.844 141.354V134.455ZM115.611 133.526C115.363 133.526 115.152 133.445 114.976 133.283C114.802 133.118 114.716 132.92 114.716 132.69C114.716 132.457 114.802 132.26 114.976 132.098C115.152 131.933 115.363 131.851 115.611 131.851C115.855 131.851 116.064 131.933 116.237 132.098C116.413 132.26 116.501 132.457 116.501 132.69C116.501 132.92 116.413 133.118 116.237 133.283C116.064 133.445 115.855 133.526 115.611 133.526ZM120.588 141.128C119.948 141.128 119.394 140.987 118.926 140.706C118.457 140.425 118.093 140.031 117.835 139.526C117.579 139.02 117.451 138.429 117.451 137.753C117.451 137.077 117.579 136.484 117.835 135.976C118.093 135.467 118.457 135.072 118.926 134.791C119.394 134.51 119.948 134.369 120.588 134.369C121.227 134.369 121.781 134.51 122.25 134.791C122.718 135.072 123.08 135.467 123.336 135.976C123.595 136.484 123.724 137.077 123.724 137.753C123.724 138.429 123.595 139.02 123.336 139.526C123.08 140.031 122.718 140.425 122.25 140.706C121.781 140.987 121.227 141.128 120.588 141.128ZM120.596 139.892C120.943 139.892 121.232 139.797 121.465 139.607C121.698 139.413 121.872 139.155 121.985 138.831C122.102 138.507 122.16 138.146 122.16 137.749C122.16 137.348 122.102 136.986 121.985 136.662C121.872 136.335 121.698 136.075 121.465 135.882C121.232 135.689 120.943 135.592 120.596 135.592C120.241 135.592 119.946 135.689 119.71 135.882C119.477 136.075 119.302 136.335 119.186 136.662C119.072 136.986 119.015 137.348 119.015 137.749C119.015 138.146 119.072 138.507 119.186 138.831C119.302 139.155 119.477 139.413 119.71 139.607C119.946 139.797 120.241 139.892 120.596 139.892ZM128.965 138.247V134.455H130.508V141H129.012V139.837H128.944C128.796 140.203 128.553 140.503 128.215 140.736C127.88 140.969 127.467 141.085 126.975 141.085C126.546 141.085 126.167 140.99 125.837 140.8C125.511 140.607 125.255 140.327 125.07 139.96C124.886 139.591 124.793 139.145 124.793 138.622V134.455H126.336V138.384C126.336 138.798 126.449 139.128 126.677 139.372C126.904 139.616 127.202 139.739 127.572 139.739C127.799 139.739 128.019 139.683 128.232 139.572C128.445 139.462 128.62 139.297 128.756 139.078C128.896 138.857 128.965 138.58 128.965 138.247ZM131.854 141V134.455H133.35V135.545H133.418C133.537 135.168 133.742 134.876 134.032 134.672C134.324 134.464 134.658 134.361 135.033 134.361C135.118 134.361 135.213 134.365 135.319 134.374C135.426 134.379 135.516 134.389 135.587 134.403V135.822C135.522 135.8 135.418 135.78 135.276 135.763C135.137 135.743 135.002 135.733 134.871 135.733C134.59 135.733 134.337 135.794 134.113 135.916C133.891 136.036 133.716 136.202 133.588 136.415C133.461 136.628 133.397 136.874 133.397 137.152V141H131.854ZM137.914 137.165V141H136.372V134.455H137.846V135.567H137.923C138.074 135.2 138.314 134.909 138.643 134.693C138.976 134.477 139.386 134.369 139.875 134.369C140.326 134.369 140.72 134.466 141.055 134.659C141.393 134.852 141.655 135.132 141.839 135.499C142.027 135.865 142.119 136.31 142.116 136.832V141H140.574V137.071C140.574 136.634 140.46 136.291 140.233 136.044C140.008 135.797 139.697 135.673 139.299 135.673C139.03 135.673 138.789 135.733 138.579 135.852C138.372 135.969 138.208 136.138 138.089 136.359C137.973 136.581 137.914 136.849 137.914 137.165ZM146.342 141.128C145.686 141.128 145.119 140.991 144.642 140.719C144.167 140.443 143.802 140.054 143.547 139.551C143.291 139.045 143.163 138.45 143.163 137.766C143.163 137.092 143.291 136.501 143.547 135.993C143.805 135.482 144.166 135.084 144.629 134.8C145.092 134.513 145.636 134.369 146.261 134.369C146.665 134.369 147.045 134.435 147.403 134.565C147.764 134.693 148.082 134.892 148.358 135.162C148.636 135.432 148.855 135.776 149.014 136.193C149.173 136.608 149.253 137.102 149.253 137.676V138.149H143.888V137.109H147.774C147.771 136.814 147.707 136.551 147.582 136.321C147.457 136.088 147.282 135.905 147.058 135.771C146.836 135.638 146.578 135.571 146.282 135.571C145.967 135.571 145.69 135.648 145.451 135.801C145.213 135.952 145.027 136.151 144.893 136.398C144.763 136.642 144.696 136.911 144.693 137.203V138.111C144.693 138.491 144.763 138.818 144.902 139.091C145.041 139.361 145.236 139.568 145.486 139.713C145.736 139.855 146.028 139.926 146.363 139.926C146.588 139.926 146.791 139.895 146.973 139.832C147.155 139.767 147.312 139.672 147.446 139.547C147.579 139.422 147.68 139.267 147.748 139.082L149.189 139.244C149.098 139.625 148.924 139.957 148.669 140.241C148.416 140.523 148.092 140.741 147.697 140.898C147.302 141.051 146.851 141.128 146.342 141.128ZM151.089 143.455C150.879 143.455 150.684 143.438 150.505 143.403C150.329 143.372 150.188 143.335 150.083 143.293L150.441 142.091C150.666 142.156 150.866 142.188 151.042 142.185C151.218 142.182 151.373 142.126 151.507 142.018C151.643 141.913 151.758 141.737 151.852 141.49L151.984 141.136L149.61 134.455H151.247L152.755 139.398H152.823L154.336 134.455H155.977L153.356 141.793C153.234 142.139 153.072 142.436 152.87 142.683C152.668 142.933 152.421 143.124 152.129 143.254C151.839 143.388 151.492 143.455 151.089 143.455Z" fill="#101828"/>
<path d="M537.467 165.367L541.234 161.6L540.301 160.633L537.467 163.467L536.034 162.067L535.101 163L537.467 165.367ZM534.334 168C533.967 168 533.654 167.87 533.393 167.609C533.132 167.348 533.001 167.034 533.001 166.667V158.667C533.001 158.3 533.131 157.986 533.393 157.725C533.654 157.464 533.968 157.334 534.334 157.333H542.334C542.701 157.333 543.015 157.464 543.276 157.725C543.537 157.987 543.668 158.3 543.667 158.667V166.667C543.667 167.033 543.537 167.347 543.276 167.609C543.015 167.87 542.701 168 542.334 168H534.334ZM531.667 170.667C531.301 170.667 530.987 170.536 530.726 170.275C530.465 170.014 530.334 169.7 530.334 169.333V160H531.667V169.333H541.001V170.667H531.667Z" fill="#1A1A1A"/>
<path d="M517.467 165.367L521.234 161.6L520.301 160.633L517.467 163.467L516.034 162.067L515.101 163L517.467 165.367ZM514.334 168C513.967 168 513.654 167.87 513.393 167.609C513.132 167.348 513.001 167.034 513.001 166.667V158.667C513.001 158.3 513.131 157.986 513.393 157.725C513.654 157.464 513.968 157.334 514.334 157.333H522.334C522.701 157.333 523.015 157.464 523.276 157.725C523.537 157.987 523.668 158.3 523.667 158.667V166.667C523.667 167.033 523.537 167.347 523.276 167.609C523.015 167.87 522.701 168 522.334 168H514.334ZM511.667 170.667C511.301 170.667 510.987 170.536 510.726 170.275C510.465 170.014 510.334 169.7 510.334 169.333V160H511.667V169.333H521.001V170.667H511.667Z" fill="#1A1A1A"/>
<path d="M497.467 165.367L501.234 161.6L500.301 160.633L497.467 163.467L496.034 162.067L495.101 163L497.467 165.367ZM494.334 168C493.967 168 493.654 167.87 493.393 167.609C493.132 167.348 493.001 167.034 493.001 166.667V158.667C493.001 158.3 493.131 157.986 493.393 157.725C493.654 157.464 493.968 157.334 494.334 157.333H502.334C502.701 157.333 503.015 157.464 503.276 157.725C503.537 157.987 503.668 158.3 503.667 158.667V166.667C503.667 167.033 503.537 167.347 503.276 167.609C503.015 167.87 502.701 168 502.334 168H494.334ZM491.667 170.667C491.301 170.667 490.987 170.536 490.726 170.275C490.465 170.014 490.334 169.7 490.334 169.333V160H491.667V169.333H501.001V170.667H491.667Z" fill="#1A1A1A"/>
<rect x="294" y="109" width="15" height="11" fill="#FEBBAE"/>
</g>
</g>
</g>
<defs>
<clipPath id="clip0_8893_16735">
<rect width="518.84" height="380.41" fill="white" transform="translate(41.1602 81.4004)"/>
</clipPath>
<clipPath id="clip1_8893_16735">
<rect width="518.84" height="380.41" fill="white" transform="translate(41.1602 81.4004)"/>
</clipPath>
<clipPath id="clip2_8893_16735">
<rect width="518.822" height="380.41" fill="white" transform="translate(41.1699 81.4004)"/>
</clipPath>
</defs>
</svg>
