<svg xmlns="http://www.w3.org/2000/svg" width="12" height="8" viewBox="0 0 12 8" fill="none">
  <path d="M6.14094 4.86093L9.4616 1.90703C9.54657 1.83145 9.64558 1.77336 9.75298 1.73608C9.86038 1.69879 9.97407 1.68304 10.0876 1.68973C10.201 1.69642 10.3121 1.72541 10.4144 1.77505C10.5167 1.82468 10.6082 1.894 10.6837 1.97903C10.7592 2.06407 10.8173 2.16315 10.8545 2.27064C10.8918 2.37812 10.9075 2.49189 10.9008 2.60546C10.8942 2.71903 10.8652 2.83017 10.8156 2.93254C10.766 3.0349 10.6967 3.12649 10.6118 3.20207L6.14094 7.17923L1.6712 3.20207C1.49959 3.04943 1.3956 2.83483 1.38211 2.60546C1.36862 2.3761 1.44672 2.15077 1.59924 1.97903C1.75176 1.8073 1.96621 1.70324 2.1954 1.68973C2.42459 1.67623 2.64976 1.75439 2.82136 1.90703L6.14094 4.86093Z" fill="black"/>
</svg>