<svg xmlns="http://www.w3.org/2000/svg" width="15" height="15" viewBox="0 0 15 15" fill="none">
  <path fill-rule="evenodd" clip-rule="evenodd" d="M6.72751 1.20467C6.80663 1.12554 6.90056 1.06277 7.00395 1.01995C7.10734 0.97712 7.21816 0.955078 7.33008 0.955078C7.44199 0.955078 7.5528 0.97712 7.65619 1.01995C7.75958 1.06277 7.85352 1.12554 7.93265 1.20467L13.897 7.16779C13.9762 7.2469 14.0389 7.34081 14.0817 7.44418C14.1245 7.54755 14.1466 7.65835 14.1466 7.77024C14.1466 7.88213 14.1245 7.99291 14.0817 8.09628C14.0389 8.19965 13.9762 8.29358 13.897 8.37269L7.93265 14.3358C7.85351 14.4149 7.75956 14.4777 7.65619 14.5205C7.5528 14.5633 7.44197 14.5854 7.33008 14.5854C7.21816 14.5854 7.10736 14.5633 7.00397 14.5205C6.90058 14.4777 6.80663 14.4149 6.72751 14.3358C6.64837 14.2567 6.5856 14.1628 6.54278 14.0594C6.49995 13.956 6.4779 13.8452 6.4779 13.7334C6.4779 13.6215 6.49995 13.5107 6.54278 13.4073C6.5856 13.304 6.64837 13.21 6.72751 13.1309L11.2372 8.62211H1.36573C1.13974 8.62211 0.923023 8.53236 0.763233 8.3726C0.603441 8.21285 0.513672 7.99617 0.513672 7.77024C0.513672 7.54431 0.603441 7.32763 0.763233 7.16788C0.923023 7.00812 1.13974 6.91836 1.36573 6.91836H11.2372L6.72751 2.40956C6.64836 2.33045 6.58558 2.23653 6.54274 2.13316C6.49991 2.02979 6.47786 1.919 6.47786 1.80711C6.47786 1.69522 6.49991 1.58443 6.54274 1.48106C6.58558 1.37769 6.64836 1.28377 6.72751 1.20467Z" fill="black"/>
</svg>