<svg xmlns="http://www.w3.org/2000/svg" width="25" height="24" viewBox="0 0 25 24" fill="none">
  <path d="M12.5 20.4722C13.5615 21.4223 14.9633 22 16.5 22C19.8137 22 22.5 19.3137 22.5 16C22.5 13.2331 20.6271 10.9036 18.0798 10.2102M6.92018 10.2102C4.37293 10.9036 2.5 13.2331 2.5 16C2.5 19.3137 5.18629 22 8.5 22C11.8137 22 14.5 19.3137 14.5 16C14.5 15.2195 14.351 14.4738 14.0798 13.7898M18.5 8C18.5 11.3137 15.8137 14 12.5 14C9.18629 14 6.5 11.3137 6.5 8C6.5 4.68629 9.18629 2 12.5 2C15.8137 2 18.5 4.68629 18.5 8Z" stroke="white" stroke-width="2" stroke-linecap="round" stroke-linejoin="round"/>
</svg>