<svg width="24" height="25" viewBox="0 0 24 25" fill="none" xmlns="http://www.w3.org/2000/svg">
<g id="message-text-square-02">
<path id="Icon" d="M7 8.90039H12M7 12.4004H15M7 18.4004V20.7359C7 21.2687 7 21.5352 7.10923 21.672C7.20422 21.791 7.34827 21.8602 7.50054 21.8601C7.67563 21.8599 7.88367 21.6935 8.29976 21.3606L10.6852 19.4522C11.1725 19.0624 11.4162 18.8675 11.6875 18.7288C11.9282 18.6059 12.1844 18.516 12.4492 18.4616C12.7477 18.4004 13.0597 18.4004 13.6837 18.4004H16.2C17.8802 18.4004 18.7202 18.4004 19.362 18.0734C19.9265 17.7858 20.3854 17.3268 20.673 16.7624C21 16.1206 21 15.2805 21 13.6004V8.20039C21 6.52023 21 5.68015 20.673 5.03842C20.3854 4.47393 19.9265 4.01499 19.362 3.72737C18.7202 3.40039 17.8802 3.40039 16.2 3.40039H7.8C6.11984 3.40039 5.27976 3.40039 4.63803 3.72737C4.07354 4.01499 3.6146 4.47393 3.32698 5.03842C3 5.68015 3 6.52023 3 8.20039V14.4004C3 15.3304 3 15.7953 3.10222 16.1768C3.37962 17.2121 4.18827 18.0208 5.22354 18.2982C5.60504 18.4004 6.07003 18.4004 7 18.4004Z" stroke="#131110" stroke-width="2" stroke-linecap="round" stroke-linejoin="round"/>
</g>
</svg>
