<svg xmlns="http://www.w3.org/2000/svg" width="24" height="25" viewBox="0 0 24 25" fill="none">
  <path d="M11 4.90039H18.3C19.4201 4.90039 19.9802 4.90039 20.408 5.11838C20.7843 5.31012 21.0903 5.61609 21.282 5.99241C21.5 6.42023 21.5 6.98029 21.5 8.10039V9.40039C21.5 10.3323 21.5 10.7982 21.3478 11.1658C21.1448 11.6558 20.7554 12.0452 20.2654 12.2481C19.8978 12.4004 19.4319 12.4004 18.5 12.4004M13 19.9004H5.7C4.5799 19.9004 4.01984 19.9004 3.59202 19.6824C3.21569 19.4907 2.90973 19.1847 2.71799 18.8084C2.5 18.3805 2.5 17.8205 2.5 16.7004V15.4004C2.5 14.4685 2.5 14.0026 2.65224 13.635C2.85523 13.145 3.24458 12.7556 3.73463 12.5526C4.10218 12.4004 4.56812 12.4004 5.5 12.4004M10.3 14.9004H13.7C13.98 14.9004 14.12 14.9004 14.227 14.8459C14.3211 14.798 14.3976 14.7215 14.4455 14.6274C14.5 14.5204 14.5 14.3804 14.5 14.1004V10.7004C14.5 10.4204 14.5 10.2804 14.4455 10.1734C14.3976 10.0793 14.3211 10.0028 14.227 9.95489C14.12 9.90039 13.98 9.90039 13.7 9.90039H10.3C10.02 9.90039 9.87996 9.90039 9.773 9.95489C9.67892 10.0028 9.60243 10.0793 9.5545 10.1734C9.5 10.2804 9.5 10.4204 9.5 10.7004V14.1004C9.5 14.3804 9.5 14.5204 9.5545 14.6274C9.60243 14.7215 9.67892 14.798 9.773 14.8459C9.87996 14.9004 10.02 14.9004 10.3 14.9004ZM17.8 22.4004H21.2C21.48 22.4004 21.62 22.4004 21.727 22.3459C21.8211 22.298 21.8976 22.2215 21.9455 22.1274C22 22.0204 22 21.8804 22 21.6004V18.2004C22 17.9204 22 17.7804 21.9455 17.6734C21.8976 17.5793 21.8211 17.5028 21.727 17.4549C21.62 17.4004 21.48 17.4004 21.2 17.4004H17.8C17.52 17.4004 17.38 17.4004 17.273 17.4549C17.1789 17.5028 17.1024 17.5793 17.0545 17.6734C17 17.7804 17 17.9204 17 18.2004V21.6004C17 21.8804 17 22.0204 17.0545 22.1274C17.1024 22.2215 17.1789 22.298 17.273 22.3459C17.38 22.4004 17.52 22.4004 17.8 22.4004ZM2.8 7.40039H6.2C6.48003 7.40039 6.62004 7.40039 6.727 7.34589C6.82108 7.29796 6.89757 7.22147 6.9455 7.12739C7 7.02043 7 6.88042 7 6.60039V3.20039C7 2.92036 7 2.78035 6.9455 2.6734C6.89757 2.57931 6.82108 2.50282 6.727 2.45489C6.62004 2.40039 6.48003 2.40039 6.2 2.40039H2.8C2.51997 2.40039 2.37996 2.40039 2.273 2.45489C2.17892 2.50282 2.10243 2.57931 2.0545 2.6734C2 2.78035 2 2.92036 2 3.20039V6.60039C2 6.88042 2 7.02043 2.0545 7.12739C2.10243 7.22147 2.17892 7.29796 2.273 7.34589C2.37996 7.40039 2.51997 7.40039 2.8 7.40039Z" stroke="black" stroke-width="2" stroke-linecap="round" stroke-linejoin="round"/>
</svg>