<svg xmlns="http://www.w3.org/2000/svg" width="24" height="24" viewBox="0 0 24 24" fill="none">
  <path d="M22.5 15.75C22.9142 15.75 23.25 15.4142 23.25 15C23.25 14.5858 22.9142 14.25 22.5 14.25C22.0858 14.25 21.75 14.5858 21.75 15C21.75 15.4142 22.0858 15.75 22.5 15.75Z" fill="white"/>
  <path d="M1.5 15.75C1.91421 15.75 2.25 15.4142 2.25 15C2.25 14.5858 1.91421 14.25 1.5 14.25C1.08579 14.25 0.75 14.5858 0.75 15C0.75 15.4142 1.08579 15.75 1.5 15.75Z" fill="white"/>
  <path d="M18.0008 19.5001C17.2115 19.499 16.4363 19.2904 15.7531 18.895C15.0698 18.4997 14.5026 17.9316 14.1083 17.2478L12.8086 17.9978C13.8458 19.7903 15.7808 21.0001 18.0008 21.0001C20.2208 21.0001 22.1558 19.7911 23.1931 17.9978L21.8933 17.2478C21.4991 17.9316 20.9318 18.4997 20.2486 18.895C19.5654 19.2904 18.7902 19.499 18.0008 19.5001Z" fill="white"/>
  <path d="M18.0002 10.5C18.79 10.5014 19.5655 10.7099 20.2494 11.1047C20.9334 11.4995 21.5018 12.0668 21.898 12.75L23.197 11.9992C22.1267 10.149 20.1355 9 18.0002 9C15.865 9 13.8737 10.149 12.7967 12.0112L9.89798 17.25C9.09548 18.6375 7.60223 19.5 6.00023 19.5C4.39823 19.5 2.90498 18.6375 2.10248 17.25L0.802734 18.0007C1.87373 19.851 3.86498 21 6.00023 21C8.13548 21 10.1267 19.851 11.2037 17.9888L14.1025 12.75C14.905 11.3625 16.3982 10.5 18.0002 10.5Z" fill="white"/>
  <path d="M6.00084 10.5C6.7902 10.501 7.56539 10.7097 8.24862 11.105C8.93184 11.5003 9.49906 12.0684 9.89334 12.7523L11.1931 12.0023C10.1558 10.2098 8.22084 9 6.00084 9C3.78084 9 1.84584 10.2098 0.808594 12.0023L2.10834 12.7523C2.50262 12.0684 3.06985 11.5003 3.75307 11.105C4.4363 10.7097 5.21149 10.501 6.00084 10.5ZM12.0008 4.5C12.9857 4.49938 13.961 4.69332 14.8707 5.07069C15.7804 5.44806 16.6066 6.00142 17.3018 6.699L18.3608 5.64C16.7318 4.0095 14.4818 3 12.0008 3C9.51984 3 7.26984 4.0095 5.64009 5.63925L6.69984 6.699C7.39508 6.00142 8.22128 5.44806 9.13098 5.07069C10.0407 4.69332 11.016 4.49938 12.0008 4.5Z" fill="white"/>
</svg>